mtllib 4.mtl

v  -37.718161 106.999164 -37.615453
v  -37.718161 106.999164 -37.615453
v  -37.718161 106.999164 -37.615453
v  -37.718161 106.999164 -37.615453
v  -36.914916 104.654766 -32.014653
v  -36.914916 104.654766 -32.014653
v  -36.582452 98.999164 -29.696478
v  -36.582452 98.999164 -29.696478
v  -36.914916 93.343562 -32.014653
v  -36.914916 93.343562 -32.014653
v  -37.718161 90.999164 -37.615453
v  -37.718161 90.999164 -37.615453
v  -37.718161 90.999164 -37.615453
v  -37.718161 90.999164 -37.615453
v  -186.198942 90.999164 -16.320910
v  -186.198942 90.999164 -16.320910
v  -186.198942 90.999164 -16.320910
v  -185.215551 94.998202 -9.464001
v  -185.215551 94.998202 -9.464001
v  -185.215551 103.000125 -9.464001
v  -185.215551 103.000125 -9.464001
v  -186.198942 106.999164 -16.320910
v  -186.198942 106.999164 -16.320910
v  -186.198942 106.999164 -16.320910
v  -186.198942 123.999164 -16.320910
v  -186.198942 123.999164 -16.320910
v  -186.198942 123.999164 -16.320910
v  -188.708474 116.676450 -33.819159
v  -188.708474 116.676450 -33.819159
v  -189.748033 98.999164 -41.067707
v  -189.748033 98.999164 -41.067707
v  -188.708474 81.321878 -33.819159
v  -188.708474 81.321878 -33.819159
v  -186.198942 73.999164 -16.320910
v  -186.198942 73.999164 -16.320910
v  -186.198942 73.999164 -16.320910
v  -183.689411 81.321878 1.177338
v  -183.689411 81.321878 1.177338
v  -182.649852 98.999164 8.425887
v  -182.649852 98.999164 8.425887
v  -183.689411 116.676450 1.177338
v  -183.689411 116.676450 1.177338
v  -187.182334 94.998202 -23.177820
v  -187.182334 94.998202 -23.177820
v  -187.182334 103.000125 -23.177820
v  -187.182334 103.000125 -23.177820
v  -196.097661 73.999164 -14.901274
v  -196.097661 73.999164 -14.901274
v  -196.097661 73.999164 -14.901274
v  -193.588130 81.321878 2.596974
v  -193.588130 81.321878 2.596974
v  -192.548571 98.999164 9.845523
v  -192.548571 98.999164 9.845523
v  -193.588130 116.676450 2.596974
v  -193.588130 116.676450 2.596974
v  -196.097661 123.999164 -14.901274
v  -196.097661 123.999164 -14.901274
v  -196.097661 123.999164 -14.901274
v  -198.607193 81.321878 -32.399522
v  -198.607193 81.321878 -32.399522
v  -199.646752 98.999164 -39.648071
v  -199.646752 98.999164 -39.648071
v  -198.607193 116.676450 -32.399522
v  -198.607193 116.676450 -32.399522
v  -38.521406 93.343562 -43.216253
v  -38.521406 93.343562 -43.216253
v  -38.853870 98.999164 -45.534428
v  -38.853870 98.999164 -45.534428
v  -38.521406 104.654766 -43.216253
v  -38.521406 104.654766 -43.216253
v  12.813970 55.950000 -44.862577
v  12.813970 55.950000 -44.862577
v  12.813970 55.950000 -44.862577
v  12.813970 55.950000 -44.862577
v  11.296562 55.950000 -38.928958
v  11.296562 55.950000 -38.928958
v  6.030704 55.950000 -35.807893
v  6.030704 55.950000 -35.807893
v  0.099919 55.950000 -37.323179
v  0.099919 55.950000 -37.323179
v  -3.023980 55.950000 -42.591159
v  -3.023980 55.950000 -42.591159
v  -3.023980 55.950000 -42.591159
v  -3.023980 55.950000 -42.591159
v  -7.672119 73.474582 -41.924541
v  -7.672119 73.474582 -41.924541
v  -7.672119 73.474582 -41.924541
v  -7.672119 73.474582 -41.924541
v  -4.860380 74.646155 -36.613056
v  0.321624 77.474582 -34.989119
v  4.838344 80.303009 -38.004010
v  6.043948 81.474582 -43.891647
v  6.043948 81.474582 -43.891647
v  6.043948 81.474582 -43.891647
v  6.043948 81.474582 -43.891647
v  -20.386805 86.312638 -40.101050
v  -20.386805 86.312638 -40.101050
v  -20.386805 86.312638 -40.101050
v  -20.386805 86.312638 -40.101050
v  -18.425082 88.342475 -34.667659
v  -15.295200 93.242934 -32.749414
v  -12.830600 98.143394 -35.469998
v  -12.475013 100.173231 -41.235729
v  -12.475013 100.173231 -41.235729
v  -12.475013 100.173231 -41.235729
v  -12.475013 100.173231 -41.235729
v  -1.506571 55.950000 -48.524779
v  -1.506571 55.950000 -48.524779
v  3.759286 55.950000 -51.645843
v  3.759286 55.950000 -51.645843
v  9.690072 55.950000 -50.130558
v  9.690072 55.950000 -50.130558
v  3.232209 80.303009 -49.203132
v  -1.949794 77.474582 -50.827069
v  -6.466515 74.646155 -47.812178
v  -14.436735 98.143394 -46.669120
v  -17.566618 93.242934 -48.587364
v  -20.031217 88.342475 -45.866781
v  12.813970 45.950000 -44.862577
v  12.813970 45.950000 -44.862577
v  12.813970 45.950000 -44.862577
v  7.870930 45.950000 -51.152756
v  7.870930 45.950000 -51.152756
v  -0.048045 45.950000 -50.017047
v  -0.048045 45.950000 -50.017047
v  -3.023980 45.950000 -42.591159
v  -3.023980 45.950000 -42.591159
v  -3.023980 45.950000 -42.591159
v  1.919061 45.950000 -36.300980
v  1.919061 45.950000 -36.300980
v  9.838036 45.950000 -37.436689
v  9.838036 45.950000 -37.436689

vt  0.412214 0.511586 0.000000
vt  0.412214 0.511586 0.000000
vt  0.412214 0.511586 0.000000
vt  0.412214 0.511586 0.000000
vt  0.412346 0.550872 0.000000
vt  0.412346 0.550872 0.000000
vt  0.422371 0.557453 0.000000
vt  0.422371 0.557453 0.000000
vt  0.437647 0.522991 0.000000
vt  0.437647 0.522991 0.000000
vt  0.448670 0.466964 0.000000
vt  0.448670 0.466964 0.000000
vt  0.448670 0.466964 0.000000
vt  0.448670 0.466964 0.000000
vt  0.936740 0.753144 0.000000
vt  0.936740 0.753144 0.000000
vt  0.936740 0.753144 0.000000
vt  0.923692 0.786299 0.000000
vt  0.923692 0.786299 0.000000
vt  0.901017 0.787106 0.000000
vt  0.901017 0.787106 0.000000
vt  0.891537 0.755880 0.000000
vt  0.891537 0.755880 0.000000
vt  0.891537 0.755880 0.000000
vt  0.847043 0.758906 0.000000
vt  0.847043 0.758906 0.000000
vt  0.847043 0.758906 0.000000
vt  0.869816 0.680467 0.000000
vt  0.869816 0.680467 0.000000
vt  0.918989 0.642152 0.000000
vt  0.918989 0.642152 0.000000
vt  0.968923 0.668613 0.000000
vt  0.968923 0.668613 0.000000
vt  0.988229 0.750457 0.000000
vt  0.988229 0.750457 0.000000
vt  0.988229 0.750457 0.000000
vt  0.962251 0.837594 0.000000
vt  0.962251 0.837594 0.000000
vt  0.908324 0.872268 0.000000
vt  0.908324 0.872268 0.000000
vt  0.861631 0.837143 0.000000
vt  0.861631 0.837143 0.000000
vt  0.926578 0.721760 0.000000
vt  0.926578 0.721760 0.000000
vt  0.904036 0.723671 0.000000
vt  0.904036 0.723671 0.000000
vt  1.000000 0.760757 0.000000
vt  1.000000 0.760757 0.000000
vt  1.000000 0.760757 0.000000
vt  0.975129 0.844101 0.000000
vt  0.975129 0.844101 0.000000
vt  0.923027 0.877176 0.000000
vt  0.923027 0.877176 0.000000
vt  0.877477 0.843222 0.000000
vt  0.877477 0.843222 0.000000
vt  0.863003 0.767595 0.000000
vt  0.863003 0.767595 0.000000
vt  0.863003 0.767595 0.000000
vt  0.981241 0.681896 0.000000
vt  0.981241 0.681896 0.000000
vt  0.932856 0.655657 0.000000
vt  0.932856 0.655657 0.000000
vt  0.885067 0.691993 0.000000
vt  0.885067 0.691993 0.000000
vt  0.447630 0.427350 0.000000
vt  0.447630 0.427350 0.000000
vt  0.435890 0.427194 0.000000
vt  0.435890 0.427194 0.000000
vt  0.421514 0.462029 0.000000
vt  0.421514 0.462029 0.000000
vt  0.031591 0.168315 0.000000
vt  0.031591 0.168315 0.000000
vt  0.031591 0.168315 0.000000
vt  0.031591 0.168315 0.000000
vt  0.049080 0.233177 0.000000
vt  0.049080 0.233177 0.000000
vt  0.111063 0.265040 0.000000
vt  0.111063 0.265040 0.000000
vt  0.182313 0.243445 0.000000
vt  0.182313 0.243445 0.000000
vt  0.219954 0.181782 0.000000
vt  0.219954 0.181782 0.000000
vt  0.219954 0.181782 0.000000
vt  0.219954 0.181782 0.000000
vt  0.253725 0.315543 0.000000
vt  0.253725 0.315543 0.000000
vt  0.253725 0.315543 0.000000
vt  0.253725 0.315543 0.000000
vt  0.227394 0.376560 0.000000
vt  0.180717 0.407536 0.000000
vt  0.142909 0.390408 0.000000
vt  0.133551 0.338740 0.000000
vt  0.133551 0.338740 0.000000
vt  0.133551 0.338740 0.000000
vt  0.133551 0.338740 0.000000
vt  0.340035 0.407084 0.000000
vt  0.340035 0.407084 0.000000
vt  0.340035 0.407084 0.000000
vt  0.340035 0.407084 0.000000
vt  0.322268 0.464959 0.000000
vt  0.293233 0.498095 0.000000
vt  0.271239 0.487630 0.000000
vt  0.267123 0.443930 0.000000
vt  0.267123 0.443930 0.000000
vt  0.267123 0.443930 0.000000
vt  0.267123 0.443930 0.000000
vt  0.201684 0.117467 0.000000
vt  0.201684 0.117467 0.000000
vt  0.138246 0.087439 0.000000
vt  0.138246 0.087439 0.000000
vt  0.067796 0.108477 0.000000
vt  0.067796 0.108477 0.000000
vt  0.156372 0.282375 0.000000
vt  0.200497 0.251263 0.000000
vt  0.241830 0.263749 0.000000
vt  0.282073 0.391998 0.000000
vt  0.309175 0.358472 0.000000
vt  0.333982 0.363027 0.000000
vt  0.000000 0.077014 0.000000
vt  0.000000 0.077014 0.000000
vt  0.000000 0.077014 0.000000
vt  0.069040 0.000000 0.000000
vt  0.069040 0.000000 0.000000
vt  0.184223 0.003981 0.000000
vt  0.184223 0.003981 0.000000
vt  0.227863 0.085329 0.000000
vt  0.227863 0.085329 0.000000
vt  0.227863 0.085329 0.000000
vt  0.155352 0.163537 0.000000
vt  0.155352 0.163537 0.000000
vt  0.041190 0.159025 0.000000
vt  0.041190 0.159025 0.000000

vn  0.000000 1.000000 0.000000
vn  0.000000 1.000000 0.000000
vn  -0.000000 1.000000 0.000000
vn  -0.000000 1.000000 -0.000000
vn  0.100406 0.706950 0.700100
vn  0.100406 0.706950 0.700100
vn  0.141964 -0.000000 0.989872
vn  0.141964 0.000000 0.989872
vn  0.100406 -0.706950 0.700100
vn  0.100406 -0.706950 0.700100
vn  -0.000000 -1.000000 0.000000
vn  -0.000000 -1.000000 -0.000000
vn  0.000000 -1.000000 0.000000
vn  0.000000 -1.000000 -0.000000
vn  -0.000000 -1.000000 0.000000
vn  0.989872 -0.000000 -0.141964
vn  -0.000000 -1.000000 -0.000000
vn  0.122944 -0.500000 0.857254
vn  0.989872 -0.000000 -0.141964
vn  0.122944 0.500000 0.857254
vn  0.989872 -0.000000 -0.141964
vn  0.000000 1.000000 0.000000
vn  0.989872 -0.000000 -0.141964
vn  0.000000 1.000000 0.000000
vn  0.989872 -0.000000 -0.141964
vn  0.000000 1.000000 0.000000
vn  0.000000 1.000000 0.000000
vn  0.989872 -0.000000 -0.141964
vn  -0.100383 0.707107 -0.699945
vn  0.989872 -0.000000 -0.141964
vn  -0.141964 0.000000 -0.989872
vn  0.989872 -0.000000 -0.141964
vn  -0.100383 -0.707107 -0.699945
vn  0.989872 -0.000000 -0.141964
vn  -0.000000 -1.000000 0.000000
vn  -0.000000 -1.000000 -0.000000
vn  0.989872 -0.000000 -0.141964
vn  0.100383 -0.707107 0.699945
vn  0.989872 -0.000000 -0.141964
vn  0.141964 -0.000000 0.989872
vn  0.989872 -0.000000 -0.141964
vn  0.100383 0.707107 0.699945
vn  0.989872 -0.000000 -0.141964
vn  -0.122944 -0.500000 -0.857254
vn  0.989872 -0.000000 -0.141964
vn  -0.122944 0.500000 -0.857254
vn  -0.000000 -1.000000 0.000000
vn  -0.989872 0.000000 0.141964
vn  -0.000000 -1.000000 -0.000000
vn  0.100383 -0.707107 0.699945
vn  -0.989872 0.000000 0.141964
vn  0.141964 -0.000000 0.989872
vn  -0.989872 0.000000 0.141964
vn  0.100383 0.707107 0.699945
vn  -0.989872 0.000000 0.141964
vn  0.000000 1.000000 0.000000
vn  -0.989872 0.000000 0.141964
vn  0.000000 1.000000 0.000000
vn  -0.989872 0.000000 0.141964
vn  -0.100383 -0.707107 -0.699945
vn  -0.989872 0.000000 0.141964
vn  -0.141964 0.000000 -0.989872
vn  -0.989872 0.000000 0.141964
vn  -0.100383 0.707107 -0.699945
vn  -0.100406 -0.706950 -0.700100
vn  -0.100406 -0.706950 -0.700100
vn  -0.141964 -0.000000 -0.989872
vn  -0.141964 0.000000 -0.989872
vn  -0.100406 0.706950 -0.700100
vn  -0.100406 0.706950 -0.700100
vn  0.989872 0.000000 -0.141964
vn  0.989872 0.000000 -0.141964
vn  0.989872 -0.000000 -0.141964
vn  0.989872 -0.000000 -0.141964
vn  0.800196 0.000000 0.599739
vn  0.800196 -0.000000 0.599739
vn  0.141964 0.000000 0.989872
vn  0.141964 0.000000 0.989872
vn  -0.599385 -0.000000 0.800461
vn  -0.599385 0.000000 0.800461
vn  -0.989872 -0.000000 0.141964
vn  -0.989872 -0.000000 0.141964
vn  -0.989872 0.000000 0.141964
vn  -0.989872 0.000000 0.141964
vn  -0.857254 -0.500000 0.122944
vn  -0.857254 -0.500000 0.122944
vn  -0.857254 -0.500000 0.122944
vn  -0.857254 -0.500000 0.122944
vn  -0.505787 -0.353553 0.786880
vn  0.141964 0.000000 0.989872
vn  0.706554 0.353553 0.613011
vn  0.857254 0.500000 -0.122944
vn  0.857254 0.500000 -0.122944
vn  0.857254 0.500000 -0.122944
vn  0.857254 0.500000 -0.122944
vn  -0.494487 -0.866287 0.070917
vn  -0.494487 -0.866287 0.070917
vn  -0.494487 -0.866287 0.070917
vn  -0.494487 -0.866287 0.070917
vn  -0.249272 -0.612557 0.750091
vn  0.141964 0.000000 0.989872
vn  0.450039 0.612557 0.649799
vn  0.494487 0.866287 -0.070917
vn  0.494487 0.866287 -0.070917
vn  0.494487 0.866287 -0.070917
vn  0.494487 0.866287 -0.070917
vn  -0.800196 -0.000000 -0.599739
vn  -0.800196 0.000000 -0.599739
vn  -0.141964 -0.000000 -0.989872
vn  -0.141964 -0.000000 -0.989872
vn  0.599385 0.000000 -0.800461
vn  0.599385 -0.000000 -0.800461
vn  0.505787 0.353553 -0.786880
vn  -0.141964 -0.000000 -0.989872
vn  -0.706554 -0.353553 -0.613011
vn  0.249272 0.612557 -0.750091
vn  -0.141964 -0.000000 -0.989872
vn  -0.450039 -0.612557 -0.649799
vn  -0.000000 -1.000000 0.000000
vn  0.989872 -0.000000 -0.141964
vn  0.989872 -0.000000 -0.141964
vn  -0.000000 -1.000000 0.000000
vn  0.371992 -0.000000 -0.928236
vn  -0.000000 -1.000000 0.000000
vn  -0.617880 -0.000000 -0.786272
vn  -0.000000 -1.000000 0.000000
vn  -0.989872 0.000000 0.141964
vn  -0.989872 0.000000 0.141964
vn  -0.000000 -1.000000 0.000000
vn  -0.371992 0.000000 0.928236
vn  -0.000000 -1.000000 0.000000
vn  0.617880 0.000000 0.786272


g 0
g 1
usemtl MTL0
f 20/20/20  5/5/5  1/1/1
f 103/103/103  3/3/3  6/6/6
f 22/22/22  20/20/20  1/1/1
f 69/69/69  24/24/24  2/2/2
f 116/116/116  70/70/70  4/4/4
f 116/116/116  4/4/4  105/105/105
f 20/20/20  7/7/7  5/5/5
f 102/102/102  6/6/6  8/8/8
f 103/103/103  6/6/6  102/102/102
f 18/18/18  9/9/9  7/7/7
f 101/101/101  8/8/8  10/10/10
f 20/20/20  18/18/18  7/7/7
f 102/102/102  8/8/8  101/101/101
f 15/15/15  11/11/11  9/9/9
f 100/100/100  10/10/10  13/13/13
f 18/18/18  15/15/15  9/9/9
f 101/101/101  10/10/10  100/100/100
f 44/44/44  12/12/12  17/17/17
f 65/65/65  12/12/12  44/44/44
f 98/98/98  14/14/14  66/66/66
f 100/100/100  13/13/13  96/96/96
f 34/34/34  16/16/16  19/19/19
f 34/34/34  32/32/32  16/16/16
f 43/43/43  16/16/16  32/32/32
f 41/41/41  19/19/19  21/21/21
f 41/41/41  34/34/34  19/19/19
f 41/41/41  21/21/21  23/23/23
f 41/41/41  23/23/23  25/25/25
f 45/45/45  25/25/25  23/23/23
f 69/69/69  46/46/46  24/24/24
f 32/32/32  28/28/28  25/25/25
f 58/58/58  27/27/27  29/29/29
f 45/45/45  32/32/32  25/25/25
f 54/54/54  42/42/42  26/26/26
f 56/56/56  54/54/54  26/26/26
f 32/32/32  30/30/30  28/28/28
f 64/64/64  29/29/29  31/31/31
f 64/64/64  58/58/58  29/29/29
f 62/62/62  31/31/31  33/33/33
f 64/64/64  31/31/31  62/62/62
f 60/60/60  33/33/33  36/36/36
f 45/45/45  43/43/43  32/32/32
f 62/62/62  33/33/33  60/60/60
f 41/41/41  37/37/37  34/34/34
f 47/47/47  35/35/35  38/38/38
f 60/60/60  36/36/36  49/49/49
f 41/41/41  39/39/39  37/37/37
f 50/50/50  38/38/38  40/40/40
f 50/50/50  47/47/47  38/38/38
f 52/52/52  40/40/40  42/42/42
f 52/52/52  50/50/50  40/40/40
f 54/54/54  52/52/52  42/42/42
f 67/67/67  44/44/44  46/46/46
f 67/67/67  65/65/65  44/44/44
f 69/69/69  67/67/67  46/46/46
f 57/57/57  48/48/48  51/51/51
f 63/63/63  48/48/48  57/57/57
f 63/63/63  59/59/59  48/48/48
f 55/55/55  51/51/51  53/53/53
f 57/57/57  51/51/51  55/55/55
f 63/63/63  61/61/61  59/59/59
f 118/118/118  66/66/66  68/68/68
f 118/118/118  98/98/98  66/66/66
f 117/117/117  68/68/68  70/70/70
f 118/118/118  68/68/68  117/117/117
f 117/117/117  70/70/70  116/116/116
f 91/91/91  75/75/75  71/71/71
f 120/120/120  73/73/73  76/76/76
f 92/92/92  91/91/91  71/71/71
f 111/111/111  94/94/94  72/72/72
f 123/123/123  112/112/112  74/74/74
f 123/123/123  74/74/74  121/121/121
f 90/90/90  77/77/77  75/75/75
f 132/132/132  76/76/76  78/78/78
f 91/91/91  90/90/90  75/75/75
f 132/132/132  120/120/120  76/76/76
f 89/89/89  79/79/79  77/77/77
f 130/130/130  78/78/78  80/80/80
f 90/90/90  89/89/89  77/77/77
f 132/132/132  78/78/78  130/130/130
f 85/85/85  81/81/81  79/79/79
f 130/130/130  80/80/80  83/83/83
f 89/89/89  85/85/85  79/79/79
f 115/115/115  82/82/82  87/87/87
f 115/115/115  107/107/107  82/82/82
f 128/128/128  84/84/84  108/108/108
f 130/130/130  83/83/83  127/127/127
f 96/96/96  85/85/85  89/89/89
f 118/118/118  87/87/87  98/98/98
f 118/118/118  115/115/115  87/87/87
f 100/100/100  89/89/89  90/90/90
f 100/100/100  96/96/96  89/89/89
f 101/101/101  90/90/90  91/91/91
f 101/101/101  100/100/100  90/90/90
f 102/102/102  91/91/91  92/92/92
f 102/102/102  101/101/101  91/91/91
f 103/103/103  102/102/102  92/92/92
f 113/113/113  105/105/105  94/94/94
f 113/113/113  94/94/94  111/111/111
f 116/116/116  105/105/105  113/113/113
f 114/114/114  109/109/109  107/107/107
f 125/125/125  108/108/108  110/110/110
f 115/115/115  114/114/114  107/107/107
f 128/128/128  108/108/108  125/125/125
f 113/113/113  111/111/111  109/109/109
f 123/123/123  110/110/110  112/112/112
f 114/114/114  113/113/113  109/109/109
f 125/125/125  110/110/110  123/123/123
f 116/116/116  113/113/113  114/114/114
f 117/117/117  114/114/114  115/115/115
f 117/117/117  116/116/116  114/114/114
f 118/118/118  117/117/117  115/115/115
f 124/124/124  122/122/122  119/119/119
f 126/126/126  124/124/124  119/119/119
f 131/131/131  126/126/126  119/119/119
f 131/131/131  129/129/129  126/126/126
