mtllib 5.mtl

v  249.999995 10.000000 0.020072
v  249.999995 10.000000 0.020072
v  249.999995 10.000000 0.020072
v  242.372732 10.000000 -23.494202
v  242.372732 10.000000 -23.494202
v  222.377945 10.000000 -38.036479
v  222.377945 10.000000 -38.036479
v  197.660235 10.000000 -38.048883
v  197.660235 10.000000 -38.048883
v  177.650863 10.000000 -23.526680
v  177.650863 10.000000 -23.526680
v  170.000005 10.000000 -0.020072
v  170.000005 10.000000 -0.020072
v  170.000005 10.000000 -0.020072
v  177.627268 10.000000 23.494202
v  177.627268 10.000000 23.494202
v  197.622055 10.000000 38.036479
v  197.622055 10.000000 38.036479
v  222.339765 10.000000 38.048883
v  222.339765 10.000000 38.048883
v  242.349137 10.000000 23.526680
v  242.349137 10.000000 23.526680
v  214.999999 10.000000 0.002509
v  214.999999 10.000000 0.002509
v  214.999999 10.000000 0.002509
v  213.534384 10.000000 3.536367
v  213.534384 10.000000 3.536367
v  209.997491 10.000000 4.999602
v  209.997491 10.000000 4.999602
v  206.462068 10.000000 3.532818
v  206.462068 10.000000 3.532818
v  205.000001 10.000000 -0.002509
v  205.000001 10.000000 -0.002509
v  205.000001 10.000000 -0.002509
v  206.465616 10.000000 -3.536367
v  206.465616 10.000000 -3.536367
v  210.002509 10.000000 -4.999602
v  210.002509 10.000000 -4.999602
v  213.537932 10.000000 -3.532818
v  213.537932 10.000000 -3.532818
v  249.999995 49.000000 0.020072
v  249.999995 49.000000 0.020072
v  249.999995 49.000000 0.020072
v  242.349137 49.000000 23.526680
v  242.349137 49.000000 23.526680
v  222.339765 49.000000 38.048883
v  222.339765 49.000000 38.048883
v  197.622055 49.000000 38.036479
v  197.622055 49.000000 38.036479
v  177.627268 49.000000 23.494202
v  177.627268 49.000000 23.494202
v  170.000005 49.000000 -0.020072
v  170.000005 49.000000 -0.020072
v  170.000005 49.000000 -0.020072
v  177.650863 49.000000 -23.526680
v  177.650863 49.000000 -23.526680
v  197.660235 49.000000 -38.048883
v  197.660235 49.000000 -38.048883
v  222.377945 49.000000 -38.036479
v  222.377945 49.000000 -38.036479
v  242.372732 49.000000 -23.494202
v  242.372732 49.000000 -23.494202
v  214.999999 49.000000 0.002509
v  214.999999 49.000000 0.002509
v  214.999999 49.000000 0.002509
v  213.537932 49.000000 -3.532818
v  213.537932 49.000000 -3.532818
v  210.002509 49.000000 -4.999602
v  210.002509 49.000000 -4.999602
v  206.465616 49.000000 -3.536367
v  206.465616 49.000000 -3.536367
v  205.000001 49.000000 -0.002509
v  205.000001 49.000000 -0.002509
v  205.000001 49.000000 -0.002509
v  206.462068 49.000000 3.532818
v  206.462068 49.000000 3.532818
v  209.997491 49.000000 4.999602
v  209.997491 49.000000 4.999602
v  213.534384 49.000000 3.536367
v  213.534384 49.000000 3.536367
v  235.680154 49.000000 0.012887
v  235.680154 49.000000 0.012887
v  235.680154 49.000000 0.012887
v  234.646762 49.000000 -2.485889
v  234.646762 49.000000 -2.485889
v  232.147919 49.000000 -3.522614
v  232.147919 49.000000 -3.522614
v  229.648037 49.000000 -2.488397
v  229.648037 49.000000 -2.488397
v  228.612138 49.000000 0.009340
v  228.612138 49.000000 0.009340
v  228.612138 49.000000 0.009340
v  229.645530 49.000000 2.508115
v  229.645530 49.000000 2.508115
v  232.144372 49.000000 3.544840
v  232.144372 49.000000 3.544840
v  234.644254 49.000000 2.510624
v  234.644254 49.000000 2.510624
v  235.680154 59.000000 0.012887
v  235.680154 59.000000 0.012887
v  235.680154 59.000000 0.012887
v  234.643813 59.000000 2.511288
v  234.643813 59.000000 2.511288
v  232.144372 59.000000 3.545121
v  232.144372 59.000000 3.545121
v  229.645971 59.000000 2.508780
v  229.645971 59.000000 2.508780
v  228.612138 59.000000 0.009340
v  228.612138 59.000000 0.009340
v  228.612138 59.000000 0.009340
v  229.648479 59.000000 -2.489062
v  229.648479 59.000000 -2.489062
v  232.147919 59.000000 -3.522895
v  232.147919 59.000000 -3.522895
v  234.646321 59.000000 -2.486554
v  234.646321 59.000000 -2.486554

vt  0.000000 0.190013 0.000000
vt  0.000000 0.190013 0.000000
vt  0.000000 0.190013 0.000000
vt  0.001257 0.093383 0.000000
vt  0.001257 0.093383 0.000000
vt  0.004960 0.020696 0.000000
vt  0.004960 0.020696 0.000000
vt  0.010570 0.000000 0.000000
vt  0.010570 0.000000 0.000000
vt  0.016252 0.058473 0.000000
vt  0.016252 0.058473 0.000000
vt  0.018777 0.189815 0.000000
vt  0.018777 0.189815 0.000000
vt  0.018777 0.189815 0.000000
vt  0.016260 0.321231 0.000000
vt  0.016260 0.321231 0.000000
vt  0.010580 0.379842 0.000000
vt  0.010580 0.379842 0.000000
vt  0.004967 0.359253 0.000000
vt  0.004967 0.359253 0.000000
vt  0.001261 0.286626 0.000000
vt  0.001261 0.286626 0.000000
vt  0.006499 0.189945 0.000000
vt  0.006499 0.189945 0.000000
vt  0.006499 0.189945 0.000000
vt  0.006818 0.206475 0.000000
vt  0.006818 0.206475 0.000000
vt  0.007605 0.213710 0.000000
vt  0.007605 0.213710 0.000000
vt  0.008419 0.207023 0.000000
vt  0.008419 0.207023 0.000000
vt  0.008763 0.189921 0.000000
vt  0.008763 0.189921 0.000000
vt  0.008763 0.189921 0.000000
vt  0.008418 0.172827 0.000000
vt  0.008418 0.172827 0.000000
vt  0.007604 0.166157 0.000000
vt  0.007604 0.166157 0.000000
vt  0.006817 0.173409 0.000000
vt  0.006817 0.173409 0.000000
vt  0.153568 0.190012 0.000000
vt  0.153568 0.190012 0.000000
vt  0.153568 0.190012 0.000000
vt  0.159519 0.284800 0.000000
vt  0.159519 0.284800 0.000000
vt  0.176937 0.355522 0.000000
vt  0.176937 0.355522 0.000000
vt  0.203068 0.374618 0.000000
vt  0.203068 0.374618 0.000000
vt  0.229186 0.316753 0.000000
vt  0.229186 0.316753 0.000000
vt  0.240650 0.189820 0.000000
vt  0.240650 0.189820 0.000000
vt  0.240650 0.189820 0.000000
vt  0.229151 0.062955 0.000000
vt  0.229151 0.062955 0.000000
vt  0.203023 0.005222 0.000000
vt  0.203023 0.005222 0.000000
vt  0.176901 0.024424 0.000000
vt  0.176901 0.024424 0.000000
vt  0.159501 0.095206 0.000000
vt  0.159501 0.095206 0.000000
vt  0.184101 0.189945 0.000000
vt  0.184101 0.189945 0.000000
vt  0.184101 0.189945 0.000000
vt  0.185584 0.173809 0.000000
vt  0.185584 0.173809 0.000000
vt  0.189251 0.166753 0.000000
vt  0.189251 0.166753 0.000000
vt  0.193038 0.173269 0.000000
vt  0.193038 0.173269 0.000000
vt  0.194644 0.189921 0.000000
vt  0.194644 0.189921 0.000000
vt  0.194644 0.189921 0.000000
vt  0.193042 0.206580 0.000000
vt  0.193042 0.206580 0.000000
vt  0.189256 0.213114 0.000000
vt  0.189256 0.213114 0.000000
vt  0.185587 0.206073 0.000000
vt  0.185587 0.206073 0.000000
vt  0.165010 0.189987 0.000000
vt  0.165010 0.189987 0.000000
vt  0.165010 0.189987 0.000000
vt  0.165887 0.179563 0.000000
vt  0.165887 0.179563 0.000000
vt  0.168040 0.175087 0.000000
vt  0.168040 0.175087 0.000000
vt  0.170239 0.179336 0.000000
vt  0.170239 0.179336 0.000000
vt  0.171164 0.189973 0.000000
vt  0.171164 0.189973 0.000000
vt  0.171164 0.189973 0.000000
vt  0.170241 0.200614 0.000000
vt  0.170241 0.200614 0.000000
vt  0.168043 0.204873 0.000000
vt  0.168043 0.204873 0.000000
vt  0.165890 0.200407 0.000000
vt  0.165890 0.200407 0.000000
vt  0.205319 0.189986 0.000000
vt  0.205319 0.189986 0.000000
vt  0.205319 0.189986 0.000000
vt  0.206359 0.200312 0.000000
vt  0.206359 0.200312 0.000000
vt  0.208904 0.204733 0.000000
vt  0.208904 0.204733 0.000000
vt  0.211500 0.200514 0.000000
vt  0.211500 0.200514 0.000000
vt  0.212589 0.189973 0.000000
vt  0.212589 0.189973 0.000000
vt  0.212589 0.189973 0.000000
vt  0.211497 0.179436 0.000000
vt  0.211497 0.179436 0.000000
vt  0.208900 0.175227 0.000000
vt  0.208900 0.175227 0.000000
vt  0.206357 0.179656 0.000000
vt  0.206357 0.179656 0.000000

vn  0.000000 -1.000000 0.000000
vn  1.000000 0.000000 0.000502
vn  1.000000 0.000000 0.000502
vn  0.000000 -1.000000 0.000000
vn  0.809312 0.000000 -0.587379
vn  0.000000 -1.000000 0.000000
vn  0.309494 0.000000 -0.950901
vn  0.000000 -1.000000 0.000000
vn  -0.308540 -0.000000 -0.951211
vn  0.000000 -1.000000 0.000000
vn  -0.808722 -0.000000 -0.588191
vn  0.000000 -1.000000 0.000000
vn  -1.000000 -0.000000 -0.000502
vn  -1.000000 -0.000000 -0.000502
vn  0.000000 -1.000000 0.000000
vn  -0.809312 -0.000000 0.587379
vn  0.000000 -1.000000 0.000000
vn  -0.309494 -0.000000 0.950901
vn  0.000000 -1.000000 0.000000
vn  0.308540 0.000000 0.951211
vn  0.000000 -1.000000 0.000000
vn  0.808722 0.000000 0.588191
vn  0.000000 -1.000000 0.000000
vn  -1.000000 -0.000000 -0.000502
vn  -1.000000 -0.000000 -0.000502
vn  0.000000 -1.000000 0.000000
vn  -0.706752 -0.000000 -0.707462
vn  0.000000 -1.000000 0.000000
vn  0.000502 0.000000 -1.000000
vn  0.000000 -1.000000 0.000000
vn  0.707462 0.000000 -0.706752
vn  0.000000 -1.000000 0.000000
vn  1.000000 0.000000 0.000502
vn  1.000000 0.000000 0.000502
vn  0.000000 -1.000000 0.000000
vn  0.706752 0.000000 0.707462
vn  0.000000 -1.000000 0.000000
vn  -0.000502 -0.000000 1.000000
vn  0.000000 -1.000000 0.000000
vn  -0.707462 -0.000000 0.706752
vn  -0.000000 1.000000 -0.000000
vn  1.000000 0.000000 0.000502
vn  1.000000 0.000000 0.000502
vn  -0.000000 1.000000 -0.000000
vn  0.808722 0.000000 0.588191
vn  -0.000000 1.000000 -0.000000
vn  0.308540 0.000000 0.951211
vn  -0.000000 1.000000 -0.000000
vn  -0.309494 -0.000000 0.950901
vn  -0.000000 1.000000 -0.000000
vn  -0.809312 -0.000000 0.587379
vn  -0.000000 1.000000 -0.000000
vn  -1.000000 -0.000000 -0.000502
vn  -1.000000 -0.000000 -0.000502
vn  -0.000000 1.000000 -0.000000
vn  -0.808722 -0.000000 -0.588191
vn  -0.000000 1.000000 -0.000000
vn  -0.308540 -0.000000 -0.951211
vn  -0.000000 1.000000 -0.000000
vn  0.309494 0.000000 -0.950901
vn  -0.000000 1.000000 -0.000000
vn  0.809312 0.000000 -0.587379
vn  -0.000000 1.000000 -0.000000
vn  -1.000000 -0.000000 -0.000502
vn  -1.000000 -0.000000 -0.000502
vn  -0.000000 1.000000 -0.000000
vn  -0.707462 -0.000000 0.706752
vn  -0.000000 1.000000 -0.000000
vn  -0.000502 -0.000000 1.000000
vn  -0.000000 1.000000 -0.000000
vn  0.706752 0.000000 0.707462
vn  -0.000000 1.000000 -0.000000
vn  1.000000 0.000000 0.000502
vn  1.000000 0.000000 0.000502
vn  -0.000000 1.000000 -0.000000
vn  0.707462 0.000000 -0.706752
vn  -0.000000 1.000000 -0.000000
vn  0.000502 0.000000 -1.000000
vn  -0.000000 1.000000 -0.000000
vn  -0.706752 -0.000000 -0.707462
vn  -0.000000 1.000000 -0.000000
vn  1.000000 0.000000 0.000502
vn  1.000000 0.000000 0.000502
vn  -0.000000 1.000000 -0.000000
vn  0.707462 0.000000 -0.706752
vn  -0.000000 1.000000 -0.000000
vn  0.000502 0.000000 -1.000000
vn  -0.000000 1.000000 -0.000000
vn  -0.706752 -0.000000 -0.707462
vn  -0.000000 1.000000 -0.000000
vn  -1.000000 -0.000000 -0.000502
vn  -1.000000 -0.000000 -0.000502
vn  -0.000000 1.000000 -0.000000
vn  -0.707462 -0.000000 0.706752
vn  -0.000000 1.000000 -0.000000
vn  -0.000502 -0.000000 1.000000
vn  -0.000000 1.000000 -0.000000
vn  0.706752 0.000000 0.707462
vn  -0.000000 1.000000 -0.000000
vn  1.000000 0.000000 0.000502
vn  1.000000 0.000000 0.000502
vn  -0.000000 1.000000 -0.000000
vn  0.706752 0.000000 0.707462
vn  -0.000000 1.000000 -0.000000
vn  -0.000502 -0.000000 1.000000
vn  -0.000000 1.000000 -0.000000
vn  -0.707462 -0.000000 0.706752
vn  -0.000000 1.000000 -0.000000
vn  -1.000000 -0.000000 -0.000502
vn  -1.000000 -0.000000 -0.000502
vn  -0.000000 1.000000 -0.000000
vn  -0.706752 -0.000000 -0.707462
vn  -0.000000 1.000000 -0.000000
vn  0.000502 0.000000 -1.000000
vn  -0.000000 1.000000 -0.000000
vn  0.707462 0.000000 -0.706752


g 0
g 1
usemtl MTL0
f 10/10/10  4/4/4  1/1/1
f 42/42/42  2/2/2  5/5/5
f 37/37/37  10/10/10  1/1/1
f 23/23/23  1/1/1  21/21/21
f 45/45/45  22/22/22  3/3/3
f 39/39/39  1/1/1  23/23/23
f 39/39/39  37/37/37  1/1/1
f 45/45/45  3/3/3  43/43/43
f 8/8/8  6/6/6  4/4/4
f 62/62/62  5/5/5  7/7/7
f 10/10/10  8/8/8  4/4/4
f 62/62/62  42/42/42  5/5/5
f 60/60/60  7/7/7  9/9/9
f 62/62/62  7/7/7  60/60/60
f 58/58/58  9/9/9  11/11/11
f 60/60/60  9/9/9  58/58/58
f 32/32/32  12/12/12  10/10/10
f 56/56/56  11/11/11  13/13/13
f 35/35/35  32/32/32  10/10/10
f 37/37/37  35/35/35  10/10/10
f 58/58/58  11/11/11  56/56/56
f 21/21/21  15/15/15  12/12/12
f 54/54/54  14/14/14  16/16/16
f 28/28/28  21/21/21  12/12/12
f 30/30/30  28/28/28  12/12/12
f 32/32/32  30/30/30  12/12/12
f 56/56/56  13/13/13  53/53/53
f 19/19/19  17/17/17  15/15/15
f 51/51/51  16/16/16  18/18/18
f 21/21/21  19/19/19  15/15/15
f 54/54/54  16/16/16  51/51/51
f 49/49/49  18/18/18  20/20/20
f 51/51/51  18/18/18  49/49/49
f 47/47/47  20/20/20  22/22/22
f 49/49/49  20/20/20  47/47/47
f 26/26/26  23/23/23  21/21/21
f 28/28/28  26/26/26  21/21/21
f 47/47/47  22/22/22  45/45/45
f 64/64/64  24/24/24  27/27/27
f 67/67/67  40/40/40  25/25/25
f 67/67/67  25/25/25  65/65/65
f 80/80/80  27/27/27  29/29/29
f 80/80/80  64/64/64  27/27/27
f 78/78/78  29/29/29  31/31/31
f 80/80/80  29/29/29  78/78/78
f 76/76/76  31/31/31  33/33/33
f 78/78/78  31/31/31  76/76/76
f 74/74/74  34/34/34  36/36/36
f 76/76/76  33/33/33  73/73/73
f 71/71/71  36/36/36  38/38/38
f 74/74/74  36/36/36  71/71/71
f 69/69/69  38/38/38  40/40/40
f 71/71/71  38/38/38  69/69/69
f 69/69/69  40/40/40  67/67/67
f 50/50/50  44/44/44  41/41/41
f 95/95/95  50/50/50  41/41/41
f 81/81/81  41/41/41  61/61/61
f 97/97/97  41/41/41  81/81/81
f 97/97/97  95/95/95  41/41/41
f 48/48/48  46/46/46  44/44/44
f 50/50/50  48/48/48  44/44/44
f 72/72/72  52/52/52  50/50/50
f 75/75/75  72/72/72  50/50/50
f 77/77/77  75/75/75  50/50/50
f 95/95/95  77/77/77  50/50/50
f 61/61/61  55/55/55  52/52/52
f 68/68/68  61/61/61  52/52/52
f 70/70/70  68/68/68  52/52/52
f 72/72/72  70/70/70  52/52/52
f 59/59/59  57/57/57  55/55/55
f 61/61/61  59/59/59  55/55/55
f 68/68/68  66/66/66  61/61/61
f 86/86/86  61/61/61  66/66/66
f 84/84/84  81/81/81  61/61/61
f 86/86/86  84/84/84  61/61/61
f 86/86/86  66/66/66  63/63/63
f 90/90/90  63/63/63  79/79/79
f 88/88/88  86/86/86  63/63/63
f 90/90/90  88/88/88  63/63/63
f 95/95/95  79/79/79  77/77/77
f 93/93/93  90/90/90  79/79/79
f 95/95/95  93/93/93  79/79/79
f 100/100/100  82/82/82  85/85/85
f 103/103/103  98/98/98  83/83/83
f 103/103/103  83/83/83  101/101/101
f 116/116/116  85/85/85  87/87/87
f 116/116/116  100/100/100  85/85/85
f 114/114/114  87/87/87  89/89/89
f 116/116/116  87/87/87  114/114/114
f 112/112/112  89/89/89  91/91/91
f 114/114/114  89/89/89  112/112/112
f 110/110/110  92/92/92  94/94/94
f 112/112/112  91/91/91  109/109/109
f 107/107/107  94/94/94  96/96/96
f 110/110/110  94/94/94  107/107/107
f 105/105/105  96/96/96  98/98/98
f 107/107/107  96/96/96  105/105/105
f 105/105/105  98/98/98  103/103/103
f 115/115/115  102/102/102  99/99/99
f 113/113/113  104/104/104  102/102/102
f 115/115/115  113/113/113  102/102/102
f 111/111/111  106/106/106  104/104/104
f 113/113/113  111/111/111  104/104/104
f 111/111/111  108/108/108  106/106/106
