mtllib 2.mtl

v  21.147174 58.109262 -5.112091
v  21.147174 58.109262 -5.112091
v  21.147174 58.109262 -5.112091
v  23.203228 59.531872 -9.442290
v  23.203228 59.531872 -9.442290
v  27.314561 62.376556 -9.442290
v  27.314561 62.376556 -9.442290
v  29.370615 63.799166 -5.112091
v  29.370615 63.799166 -5.112091
v  29.370615 63.799166 -5.112091
v  29.370615 63.799166 4.887909
v  29.370615 63.799166 4.887909
v  29.370615 63.799166 4.887909
v  27.314561 62.376556 9.218107
v  27.314561 62.376556 9.218107
v  23.203228 59.531872 9.218107
v  23.203228 59.531872 9.218107
v  21.147174 58.109262 4.887909
v  21.147174 58.109262 4.887909
v  21.147174 58.109262 4.887909
v  25.699097 51.530509 -5.112091
v  25.699097 51.530509 -5.112091
v  25.699097 51.530509 -5.112091
v  25.699097 51.530509 4.887909
v  25.699097 51.530509 4.887909
v  25.699097 51.530509 4.887909
v  27.755151 52.953119 9.218107
v  27.755151 52.953119 9.218107
v  31.866484 55.797803 9.218107
v  31.866484 55.797803 9.218107
v  33.922539 57.220413 4.887909
v  33.922539 57.220413 4.887909
v  33.922539 57.220413 4.887909
v  33.922539 57.220413 -5.112091
v  33.922539 57.220413 -5.112091
v  33.922539 57.220413 -5.112091
v  31.866484 55.797803 -9.442290
v  31.866484 55.797803 -9.442290
v  27.755151 52.953119 -9.442290
v  27.755151 52.953119 -9.442290

vt  0.186116 0.074159 0.000000
vt  0.186116 0.074159 0.000000
vt  0.186116 0.074159 0.000000
vt  0.163489 0.009922 0.000000
vt  0.163489 0.009922 0.000000
vt  0.122394 0.018856 0.000000
vt  0.122394 0.018856 0.000000
vt  0.103702 0.083983 0.000000
vt  0.103702 0.083983 0.000000
vt  0.103702 0.083983 0.000000
vt  0.103702 0.226122 0.000000
vt  0.103702 0.226122 0.000000
vt  0.103702 0.226122 0.000000
vt  0.122394 0.291194 0.000000
vt  0.122394 0.291194 0.000000
vt  0.163489 0.299924 0.000000
vt  0.163489 0.299924 0.000000
vt  0.186116 0.235521 0.000000
vt  0.186116 0.235521 0.000000
vt  0.186116 0.235521 0.000000
vt  0.072518 0.068095 0.000000
vt  0.072518 0.068095 0.000000
vt  0.072518 0.068095 0.000000
vt  0.072518 0.241322 0.000000
vt  0.072518 0.241322 0.000000
vt  0.072518 0.241322 0.000000
vt  0.052361 0.309621 0.000000
vt  0.052361 0.309621 0.000000
vt  0.016235 0.299127 0.000000
vt  0.016235 0.299127 0.000000
vt  0.000000 0.229989 0.000000
vt  0.000000 0.229989 0.000000
vt  0.000000 0.229989 0.000000
vt  0.000000 0.079941 0.000000
vt  0.000000 0.079941 0.000000
vt  0.000000 0.079941 0.000000
vt  0.016235 0.010737 0.000000
vt  0.016235 0.010737 0.000000
vt  0.052361 0.000000 0.000000
vt  0.052361 0.000000 0.000000

vn  -0.568990 0.822344 0.000000
vn  -0.822344 -0.568990 -0.000000
vn  -0.822344 -0.568990 -0.000000
vn  -0.568990 0.822344 0.000000
vn  -0.411172 -0.284495 -0.866025
vn  -0.568990 0.822344 0.000000
vn  0.411172 0.284495 -0.866025
vn  -0.568990 0.822344 0.000000
vn  0.822344 0.568990 -0.000000
vn  0.822344 0.568990 0.000000
vn  -0.568990 0.822344 0.000000
vn  0.822344 0.568990 0.000000
vn  0.822344 0.568990 -0.000000
vn  -0.568990 0.822344 0.000000
vn  0.411172 0.284495 0.866025
vn  -0.568990 0.822344 0.000000
vn  -0.411172 -0.284495 0.866025
vn  -0.568990 0.822344 0.000000
vn  -0.822344 -0.568990 0.000000
vn  -0.822344 -0.568990 -0.000000
vn  0.568990 -0.822344 -0.000000
vn  -0.822344 -0.568990 -0.000000
vn  -0.822344 -0.568990 -0.000000
vn  0.568990 -0.822344 -0.000000
vn  -0.822344 -0.568990 0.000000
vn  -0.822344 -0.568990 -0.000000
vn  0.568990 -0.822344 -0.000000
vn  -0.411172 -0.284495 0.866025
vn  0.568990 -0.822344 -0.000000
vn  0.411172 0.284495 0.866025
vn  0.568990 -0.822344 -0.000000
vn  0.822344 0.568990 0.000000
vn  0.822344 0.568990 -0.000000
vn  0.568990 -0.822344 -0.000000
vn  0.822344 0.568990 -0.000000
vn  0.822344 0.568990 0.000000
vn  0.568990 -0.822344 -0.000000
vn  0.411172 0.284495 -0.866025
vn  0.568990 -0.822344 -0.000000
vn  -0.411172 -0.284495 -0.866025


g 0
g 1
usemtl MTL0
f 6/6/6  4/4/4  1/1/1
f 22/22/22  2/2/2  5/5/5
f 8/8/8  6/6/6  1/1/1
f 18/18/18  8/8/8  1/1/1
f 26/26/26  20/20/20  3/3/3
f 26/26/26  3/3/3  23/23/23
f 40/40/40  5/5/5  7/7/7
f 40/40/40  22/22/22  5/5/5
f 38/38/38  7/7/7  9/9/9
f 40/40/40  7/7/7  38/38/38
f 18/18/18  11/11/11  8/8/8
f 36/36/36  10/10/10  12/12/12
f 38/38/38  9/9/9  35/35/35
f 16/16/16  14/14/14  11/11/11
f 33/33/33  13/13/13  15/15/15
f 18/18/18  16/16/16  11/11/11
f 36/36/36  12/12/12  32/32/32
f 30/30/30  15/15/15  17/17/17
f 33/33/33  15/15/15  30/30/30
f 28/28/28  17/17/17  19/19/19
f 30/30/30  17/17/17  28/28/28
f 28/28/28  19/19/19  25/25/25
f 31/31/31  24/24/24  21/21/21
f 34/34/34  31/31/31  21/21/21
f 39/39/39  34/34/34  21/21/21
f 29/29/29  27/27/27  24/24/24
f 31/31/31  29/29/29  24/24/24
f 39/39/39  37/37/37  34/34/34
