mtllib 4.mtl

v  34.000000 70.000000 -14.112147
v  34.000000 70.000000 -14.112147
v  34.000000 70.000000 -14.112147
v  29.607087 80.605976 -14.112147
v  29.607087 80.605976 -14.112147
v  19.000000 84.999824 -14.112147
v  19.000000 84.999824 -14.112147
v  8.392913 80.605976 -14.112147
v  8.392913 80.605976 -14.112147
v  4.000000 70.000000 -14.112147
v  4.000000 70.000000 -14.112147
v  4.000000 70.000000 -14.112147
v  8.392913 59.394024 -14.112147
v  8.392913 59.394024 -14.112147
v  19.000000 55.000176 -14.112147
v  19.000000 55.000176 -14.112147
v  29.607087 59.394024 -14.112147
v  29.607087 59.394024 -14.112147
v  37.500000 70.000000 -14.112147
v  37.500000 70.000000 -14.112147
v  37.500000 70.000000 -14.112147
v  33.966934 59.126420 -14.112147
v  33.966934 59.126420 -14.112147
v  24.715971 52.405258 -14.112147
v  24.715971 52.405258 -14.112147
v  13.284029 52.405258 -14.112147
v  13.284029 52.405258 -14.112147
v  4.033066 59.126420 -14.112147
v  4.033066 59.126420 -14.112147
v  0.500000 70.000000 -14.112147
v  0.500000 70.000000 -14.112147
v  0.500000 70.000000 -14.112147
v  4.033066 80.873580 -14.112147
v  4.033066 80.873580 -14.112147
v  13.284029 87.594742 -14.112147
v  13.284029 87.594742 -14.112147
v  24.715971 87.594742 -14.112147
v  24.715971 87.594742 -14.112147
v  33.966934 80.873580 -14.112147
v  33.966934 80.873580 -14.112147
v  34.000000 70.000000 -27.112147
v  34.000000 70.000000 -27.112147
v  34.000000 70.000000 -27.112147
v  29.607087 59.394024 -27.112147
v  29.607087 59.394024 -27.112147
v  19.000000 55.000176 -27.112147
v  19.000000 55.000176 -27.112147
v  8.392913 59.394024 -27.112147
v  8.392913 59.394024 -27.112147
v  4.000000 70.000000 -27.112147
v  4.000000 70.000000 -27.112147
v  4.000000 70.000000 -27.112147
v  8.392913 80.605976 -27.112147
v  8.392913 80.605976 -27.112147
v  19.000000 84.999824 -27.112147
v  19.000000 84.999824 -27.112147
v  29.607087 80.605976 -27.112147
v  29.607087 80.605976 -27.112147
v  37.500000 70.000000 -27.112147
v  37.500000 70.000000 -27.112147
v  37.500000 70.000000 -27.112147
v  33.966934 80.873580 -27.112147
v  33.966934 80.873580 -27.112147
v  24.715971 87.594742 -27.112147
v  24.715971 87.594742 -27.112147
v  13.284029 87.594742 -27.112147
v  13.284029 87.594742 -27.112147
v  4.033066 80.873580 -27.112147
v  4.033066 80.873580 -27.112147
v  0.500000 70.000000 -27.112147
v  0.500000 70.000000 -27.112147
v  0.500000 70.000000 -27.112147
v  4.033066 59.126420 -27.112147
v  4.033066 59.126420 -27.112147
v  13.284029 52.405258 -27.112147
v  13.284029 52.405258 -27.112147
v  24.715971 52.405258 -27.112147
v  24.715971 52.405258 -27.112147
v  33.966934 59.126420 -27.112147
v  33.966934 59.126420 -27.112147

vt  0.069289 0.285449 0.000000
vt  0.069289 0.285449 0.000000
vt  0.069289 0.285449 0.000000
vt  0.169435 0.301958 0.000000
vt  0.169435 0.301958 0.000000
vt  0.301529 0.304211 0.000000
vt  0.301529 0.304211 0.000000
vt  0.417694 0.292437 0.000000
vt  0.417694 0.292437 0.000000
vt  0.464362 0.266222 0.000000
vt  0.464362 0.266222 0.000000
vt  0.464362 0.266222 0.000000
vt  0.381064 0.233780 0.000000
vt  0.381064 0.233780 0.000000
vt  0.188825 0.226916 0.000000
vt  0.188825 0.226916 0.000000
vt  0.059008 0.255317 0.000000
vt  0.059008 0.255317 0.000000
vt  0.029634 0.288970 0.000000
vt  0.029634 0.288970 0.000000
vt  0.029634 0.288970 0.000000
vt  0.000000 0.260766 0.000000
vt  0.000000 0.260766 0.000000
vt  0.080747 0.225935 0.000000
vt  0.080747 0.225935 0.000000
vt  0.273186 0.209507 0.000000
vt  0.273186 0.209507 0.000000
vt  0.453338 0.231072 0.000000
vt  0.453338 0.231072 0.000000
vt  0.514301 0.265912 0.000000
vt  0.514301 0.265912 0.000000
vt  0.514301 0.265912 0.000000
vt  0.471616 0.292296 0.000000
vt  0.471616 0.292296 0.000000
vt  0.370937 0.306883 0.000000
vt  0.370937 0.306883 0.000000
vt  0.246430 0.311014 0.000000
vt  0.246430 0.311014 0.000000
vt  0.123815 0.305327 0.000000
vt  0.123815 0.305327 0.000000
vt  0.069289 0.129599 0.000000
vt  0.069289 0.129599 0.000000
vt  0.069289 0.129599 0.000000
vt  0.059008 0.077000 0.000000
vt  0.059008 0.077000 0.000000
vt  0.188825 0.028822 0.000000
vt  0.188825 0.028822 0.000000
vt  0.381064 0.040336 0.000000
vt  0.381064 0.040336 0.000000
vt  0.464362 0.095866 0.000000
vt  0.464362 0.095866 0.000000
vt  0.464362 0.095866 0.000000
vt  0.417694 0.142001 0.000000
vt  0.417694 0.142001 0.000000
vt  0.301529 0.163065 0.000000
vt  0.301529 0.163065 0.000000
vt  0.169435 0.159018 0.000000
vt  0.169435 0.159018 0.000000
vt  0.029634 0.135839 0.000000
vt  0.029634 0.135839 0.000000
vt  0.029634 0.135839 0.000000
vt  0.123815 0.165071 0.000000
vt  0.123815 0.165071 0.000000
vt  0.246430 0.175325 0.000000
vt  0.246430 0.175325 0.000000
vt  0.370937 0.167873 0.000000
vt  0.370937 0.167873 0.000000
vt  0.471616 0.141750 0.000000
vt  0.471616 0.141750 0.000000
vt  0.514301 0.095326 0.000000
vt  0.514301 0.095326 0.000000
vt  0.514301 0.095326 0.000000
vt  0.453338 0.035784 0.000000
vt  0.453338 0.035784 0.000000
vt  0.273186 0.000000 0.000000
vt  0.273186 0.000000 0.000000
vt  0.080747 0.027183 0.000000
vt  0.080747 0.027183 0.000000
vt  0.000000 0.086402 0.000000
vt  0.000000 0.086402 0.000000

vn  0.000000 -0.000000 1.000000
vn  -1.000000 -0.000000 0.000000
vn  -1.000000 0.000000 0.000000
vn  0.000000 -0.000000 1.000000
vn  -0.707107 -0.707107 -0.000000
vn  0.000000 -0.000000 1.000000
vn  0.000000 -1.000000 -0.000000
vn  0.000000 -0.000000 1.000000
vn  0.707107 -0.707107 -0.000000
vn  0.000000 -0.000000 1.000000
vn  1.000000 0.000000 -0.000000
vn  1.000000 0.000000 -0.000000
vn  0.000000 -0.000000 1.000000
vn  0.707107 0.707107 0.000000
vn  0.000000 -0.000000 1.000000
vn  -0.000000 1.000000 0.000000
vn  0.000000 -0.000000 1.000000
vn  -0.707107 0.707107 0.000000
vn  0.000000 -0.000000 1.000000
vn  1.000000 0.000000 -0.000000
vn  1.000000 0.000000 -0.000000
vn  0.000000 -0.000000 1.000000
vn  0.809017 -0.587785 -0.000000
vn  0.000000 -0.000000 1.000000
vn  0.309017 -0.951057 -0.000000
vn  0.000000 -0.000000 1.000000
vn  -0.309017 -0.951057 -0.000000
vn  0.000000 -0.000000 1.000000
vn  -0.809017 -0.587785 -0.000000
vn  0.000000 -0.000000 1.000000
vn  -1.000000 -0.000000 0.000000
vn  -1.000000 -0.000000 0.000000
vn  0.000000 -0.000000 1.000000
vn  -0.809017 0.587785 0.000000
vn  0.000000 -0.000000 1.000000
vn  -0.309017 0.951057 0.000000
vn  0.000000 -0.000000 1.000000
vn  0.309017 0.951057 0.000000
vn  0.000000 -0.000000 1.000000
vn  0.809017 0.587785 0.000000
vn  -0.000000 0.000000 -1.000000
vn  -1.000000 -0.000000 0.000000
vn  -1.000000 0.000000 0.000000
vn  -0.000000 0.000000 -1.000000
vn  -0.707107 0.707107 0.000000
vn  -0.000000 0.000000 -1.000000
vn  -0.000000 1.000000 0.000000
vn  -0.000000 0.000000 -1.000000
vn  0.707107 0.707107 0.000000
vn  -0.000000 0.000000 -1.000000
vn  1.000000 0.000000 -0.000000
vn  1.000000 0.000000 -0.000000
vn  -0.000000 0.000000 -1.000000
vn  0.707107 -0.707107 -0.000000
vn  -0.000000 0.000000 -1.000000
vn  0.000000 -1.000000 -0.000000
vn  -0.000000 0.000000 -1.000000
vn  -0.707107 -0.707107 -0.000000
vn  -0.000000 0.000000 -1.000000
vn  1.000000 0.000000 -0.000000
vn  1.000000 0.000000 -0.000000
vn  -0.000000 0.000000 -1.000000
vn  0.809017 0.587785 0.000000
vn  -0.000000 0.000000 -1.000000
vn  0.309017 0.951057 0.000000
vn  -0.000000 0.000000 -1.000000
vn  -0.309017 0.951057 0.000000
vn  -0.000000 0.000000 -1.000000
vn  -0.809017 0.587785 0.000000
vn  -0.000000 0.000000 -1.000000
vn  -1.000000 -0.000000 0.000000
vn  -1.000000 -0.000000 0.000000
vn  -0.000000 0.000000 -1.000000
vn  -0.809017 -0.587785 -0.000000
vn  -0.000000 0.000000 -1.000000
vn  -0.309017 -0.951057 -0.000000
vn  -0.000000 0.000000 -1.000000
vn  0.309017 -0.951057 -0.000000
vn  -0.000000 0.000000 -1.000000
vn  0.809017 -0.587785 -0.000000


g 0
g 1
usemtl MTL0
f 39/39/39  4/4/4  1/1/1
f 42/42/42  2/2/2  5/5/5
f 19/19/19  1/1/1  17/17/17
f 45/45/45  18/18/18  3/3/3
f 39/39/39  1/1/1  19/19/19
f 45/45/45  3/3/3  43/43/43
f 39/39/39  6/6/6  4/4/4
f 58/58/58  5/5/5  7/7/7
f 58/58/58  42/42/42  5/5/5
f 33/33/33  8/8/8  6/6/6
f 56/56/56  7/7/7  9/9/9
f 37/37/37  33/33/33  6/6/6
f 39/39/39  37/37/37  6/6/6
f 58/58/58  7/7/7  56/56/56
f 30/30/30  10/10/10  8/8/8
f 54/54/54  9/9/9  11/11/11
f 33/33/33  30/30/30  8/8/8
f 56/56/56  9/9/9  54/54/54
f 28/28/28  13/13/13  10/10/10
f 52/52/52  12/12/12  14/14/14
f 30/30/30  28/28/28  10/10/10
f 54/54/54  11/11/11  51/51/51
f 28/28/28  15/15/15  13/13/13
f 49/49/49  14/14/14  16/16/16
f 52/52/52  14/14/14  49/49/49
f 22/22/22  17/17/17  15/15/15
f 47/47/47  16/16/16  18/18/18
f 26/26/26  22/22/22  15/15/15
f 28/28/28  26/26/26  15/15/15
f 49/49/49  16/16/16  47/47/47
f 22/22/22  19/19/19  17/17/17
f 47/47/47  18/18/18  45/45/45
f 60/60/60  20/20/20  23/23/23
f 63/63/63  40/40/40  21/21/21
f 63/63/63  21/21/21  61/61/61
f 26/26/26  24/24/24  22/22/22
f 80/80/80  23/23/23  25/25/25
f 80/80/80  60/60/60  23/23/23
f 78/78/78  25/25/25  27/27/27
f 80/80/80  25/25/25  78/78/78
f 76/76/76  27/27/27  29/29/29
f 78/78/78  27/27/27  76/76/76
f 74/74/74  29/29/29  31/31/31
f 76/76/76  29/29/29  74/74/74
f 72/72/72  32/32/32  34/34/34
f 74/74/74  31/31/31  71/71/71
f 37/37/37  35/35/35  33/33/33
f 69/69/69  34/34/34  36/36/36
f 72/72/72  34/34/34  69/69/69
f 67/67/67  36/36/36  38/38/38
f 69/69/69  36/36/36  67/67/67
f 65/65/65  38/38/38  40/40/40
f 67/67/67  38/38/38  65/65/65
f 65/65/65  40/40/40  63/63/63
f 79/79/79  44/44/44  41/41/41
f 59/59/59  41/41/41  57/57/57
f 79/79/79  41/41/41  59/59/59
f 79/79/79  46/46/46  44/44/44
f 73/73/73  48/48/48  46/46/46
f 77/77/77  73/73/73  46/46/46
f 79/79/79  77/77/77  46/46/46
f 70/70/70  50/50/50  48/48/48
f 73/73/73  70/70/70  48/48/48
f 68/68/68  53/53/53  50/50/50
f 70/70/70  68/68/68  50/50/50
f 68/68/68  55/55/55  53/53/53
f 62/62/62  57/57/57  55/55/55
f 66/66/66  62/62/62  55/55/55
f 68/68/68  66/66/66  55/55/55
f 62/62/62  59/59/59  57/57/57
f 66/66/66  64/64/64  62/62/62
f 77/77/77  75/75/75  73/73/73
