mtllib 6.mtl

v  19.000000 39.000000 -52.887909
v  19.000000 39.000000 -52.887909
v  19.000000 39.000000 -52.887909
v  34.500241 43.153400 -52.887909
v  34.500241 43.153400 -52.887909
v  45.846600 54.499759 -52.887909
v  45.846600 54.499759 -52.887909
v  50.000000 70.000000 -52.887909
v  50.000000 70.000000 -52.887909
v  45.846600 85.500241 -52.887909
v  45.846600 85.500241 -52.887909
v  34.500241 96.846600 -52.887909
v  34.500241 96.846600 -52.887909
v  19.000000 101.000000 -52.887909
v  19.000000 101.000000 -52.887909
v  19.000000 101.000000 -52.887909
v  3.499759 96.846600 -52.887909
v  3.499759 96.846600 -52.887909
v  -7.846600 85.500241 -52.887909
v  -7.846600 85.500241 -52.887909
v  -12.000000 70.000000 -52.887909
v  -12.000000 70.000000 -52.887909
v  -7.846600 54.499759 -52.887909
v  -7.846600 54.499759 -52.887909
v  3.499759 43.153400 -52.887909
v  3.499759 43.153400 -52.887909
v  19.000000 39.000000 -48.887909
v  19.000000 39.000000 -48.887909
v  19.000000 39.000000 -48.887909
v  34.500241 43.153400 -48.887909
v  34.500241 43.153400 -48.887909
v  45.846600 54.499759 -48.887909
v  45.846600 54.499759 -48.887909
v  50.000000 70.000000 -48.887909
v  50.000000 70.000000 -48.887909
v  45.846600 85.500241 -48.887909
v  45.846600 85.500241 -48.887909
v  34.500241 96.846600 -48.887909
v  34.500241 96.846600 -48.887909
v  19.000000 101.000000 -48.887909
v  19.000000 101.000000 -48.887909
v  19.000000 101.000000 -48.887909
v  19.000000 36.000000 -48.887909
v  19.000000 36.000000 -48.887909
v  19.000000 36.000000 -48.887909
v  36.000321 40.555340 -48.887909
v  36.000321 40.555340 -48.887909
v  48.444980 53.000283 -48.887909
v  48.444980 53.000283 -48.887909
v  52.999948 70.000000 -48.887909
v  52.999948 70.000000 -48.887909
v  48.444980 86.999717 -48.887909
v  48.444980 86.999717 -48.887909
v  36.000321 99.444660 -48.887909
v  36.000321 99.444660 -48.887909
v  19.000000 104.000000 -48.887909
v  19.000000 104.000000 -48.887909
v  19.000000 104.000000 -48.887909
v  1.999679 99.444660 -48.887909
v  1.999679 99.444660 -48.887909
v  -10.444980 86.999717 -48.887909
v  -10.444980 86.999717 -48.887909
v  -14.999948 70.000000 -48.887909
v  -14.999948 70.000000 -48.887909
v  -10.444980 53.000283 -48.887909
v  -10.444980 53.000283 -48.887909
v  1.999679 40.555340 -48.887909
v  1.999679 40.555340 -48.887909
v  3.499759 43.153400 -48.887909
v  3.499759 43.153400 -48.887909
v  -7.846600 54.499759 -48.887909
v  -7.846600 54.499759 -48.887909
v  -12.000000 70.000000 -48.887909
v  -12.000000 70.000000 -48.887909
v  -7.846600 85.500241 -48.887909
v  -7.846600 85.500241 -48.887909
v  3.499759 96.846600 -48.887909
v  3.499759 96.846600 -48.887909
v  19.000000 36.000000 -45.887909
v  19.000000 36.000000 -45.887909
v  19.000000 36.000000 -45.887909
v  36.000321 40.555340 -45.887909
v  36.000321 40.555340 -45.887909
v  48.444980 53.000283 -45.887909
v  48.444980 53.000283 -45.887909
v  52.999948 70.000000 -45.887909
v  52.999948 70.000000 -45.887909
v  48.444980 86.999717 -45.887909
v  48.444980 86.999717 -45.887909
v  36.000321 99.444660 -45.887909
v  36.000321 99.444660 -45.887909
v  19.000000 104.000000 -45.887909
v  19.000000 104.000000 -45.887909
v  19.000000 104.000000 -45.887909
v  19.000000 45.000000 -45.887909
v  19.000000 45.000000 -45.887909
v  19.000000 45.000000 -45.887909
v  31.500000 48.349365 -45.887909
v  31.500000 48.349365 -45.887909
v  40.650635 57.500000 -45.887909
v  40.650635 57.500000 -45.887909
v  44.000000 70.000000 -45.887909
v  44.000000 70.000000 -45.887909
v  40.650635 82.500000 -45.887909
v  40.650635 82.500000 -45.887909
v  31.500000 91.650635 -45.887909
v  31.500000 91.650635 -45.887909
v  19.000000 95.000000 -45.887909
v  19.000000 95.000000 -45.887909
v  19.000000 95.000000 -45.887909
v  6.500000 91.650635 -45.887909
v  6.500000 91.650635 -45.887909
v  -2.650635 82.500000 -45.887909
v  -2.650635 82.500000 -45.887909
v  -6.000000 70.000000 -45.887909
v  -6.000000 70.000000 -45.887909
v  -2.650635 57.500000 -45.887909
v  -2.650635 57.500000 -45.887909
v  6.500000 48.349365 -45.887909
v  6.500000 48.349365 -45.887909
v  1.999679 40.555340 -45.887909
v  1.999679 40.555340 -45.887909
v  -10.444980 53.000283 -45.887909
v  -10.444980 53.000283 -45.887909
v  -14.999948 70.000000 -45.887909
v  -14.999948 70.000000 -45.887909
v  -10.444980 86.999717 -45.887909
v  -10.444980 86.999717 -45.887909
v  1.999679 99.444660 -45.887909
v  1.999679 99.444660 -45.887909
v  19.000000 45.000000 -48.887909
v  19.000000 45.000000 -48.887909
v  19.000000 45.000000 -48.887909
v  31.500000 48.349365 -48.887909
v  31.500000 48.349365 -48.887909
v  40.650635 57.500000 -48.887909
v  40.650635 57.500000 -48.887909
v  44.000000 70.000000 -48.887909
v  44.000000 70.000000 -48.887909
v  40.650635 82.500000 -48.887909
v  40.650635 82.500000 -48.887909
v  31.500000 91.650635 -48.887909
v  31.500000 91.650635 -48.887909
v  19.000000 95.000000 -48.887909
v  19.000000 95.000000 -48.887909
v  19.000000 95.000000 -48.887909
v  6.500000 48.349365 -48.887909
v  6.500000 48.349365 -48.887909
v  -2.650635 57.500000 -48.887909
v  -2.650635 57.500000 -48.887909
v  -6.000000 70.000000 -48.887909
v  -6.000000 70.000000 -48.887909
v  -2.650635 82.500000 -48.887909
v  -2.650635 82.500000 -48.887909
v  6.500000 91.650635 -48.887909
v  6.500000 91.650635 -48.887909

vt  0.287186 0.000983 0.000000
vt  0.287186 0.000983 0.000000
vt  0.287186 0.000983 0.000000
vt  0.066101 0.121240 0.000000
vt  0.066101 0.121240 0.000000
vt  0.041146 0.246050 0.000000
vt  0.041146 0.246050 0.000000
vt  0.120275 0.333567 0.000000
vt  0.120275 0.333567 0.000000
vt  0.248325 0.385698 0.000000
vt  0.248325 0.385698 0.000000
vt  0.398305 0.409678 0.000000
vt  0.398305 0.409678 0.000000
vt  0.554579 0.409533 0.000000
vt  0.554579 0.409533 0.000000
vt  0.554579 0.409533 0.000000
vt  0.704403 0.385235 0.000000
vt  0.704403 0.385235 0.000000
vt  0.832041 0.332717 0.000000
vt  0.832041 0.332717 0.000000
vt  0.910303 0.244718 0.000000
vt  0.910303 0.244718 0.000000
vt  0.883517 0.119541 0.000000
vt  0.883517 0.119541 0.000000
vt  0.659601 0.000000 0.000000
vt  0.659601 0.000000 0.000000
vt  0.287186 0.039806 0.000000
vt  0.287186 0.039806 0.000000
vt  0.287186 0.039806 0.000000
vt  0.066101 0.160417 0.000000
vt  0.066101 0.160417 0.000000
vt  0.041146 0.283234 0.000000
vt  0.041146 0.283234 0.000000
vt  0.120275 0.368012 0.000000
vt  0.120275 0.368012 0.000000
vt  0.248325 0.418031 0.000000
vt  0.248325 0.418031 0.000000
vt  0.398305 0.440928 0.000000
vt  0.398305 0.440928 0.000000
vt  0.554579 0.440790 0.000000
vt  0.554579 0.440790 0.000000
vt  0.554579 0.440790 0.000000
vt  0.254902 0.008340 0.000000
vt  0.254902 0.008340 0.000000
vt  0.254902 0.008340 0.000000
vt  0.014555 0.151154 0.000000
vt  0.014555 0.151154 0.000000
vt  0.000000 0.287051 0.000000
vt  0.000000 0.287051 0.000000
vt  0.092468 0.376752 0.000000
vt  0.092468 0.376752 0.000000
vt  0.232444 0.428424 0.000000
vt  0.232444 0.428424 0.000000
vt  0.393187 0.451809 0.000000
vt  0.393187 0.451809 0.000000
vt  0.559825 0.451668 0.000000
vt  0.559825 0.451668 0.000000
vt  0.559825 0.451668 0.000000
vt  0.720419 0.427972 0.000000
vt  0.720419 0.427972 0.000000
vt  0.860010 0.375897 0.000000
vt  0.860010 0.375897 0.000000
vt  0.951617 0.285650 0.000000
vt  0.951617 0.285650 0.000000
vt  0.935105 0.149233 0.000000
vt  0.935105 0.149233 0.000000
vt  0.691257 0.007111 0.000000
vt  0.691257 0.007111 0.000000
vt  0.659601 0.038810 0.000000
vt  0.659601 0.038810 0.000000
vt  0.883517 0.158729 0.000000
vt  0.883517 0.158729 0.000000
vt  0.910303 0.281935 0.000000
vt  0.910303 0.281935 0.000000
vt  0.832041 0.367194 0.000000
vt  0.832041 0.367194 0.000000
vt  0.704403 0.417589 0.000000
vt  0.704403 0.417589 0.000000
vt  0.254902 0.039639 0.000000
vt  0.254902 0.039639 0.000000
vt  0.254902 0.039639 0.000000
vt  0.014555 0.182526 0.000000
vt  0.014555 0.182526 0.000000
vt  0.000000 0.316156 0.000000
vt  0.000000 0.316156 0.000000
vt  0.092468 0.403213 0.000000
vt  0.092468 0.403213 0.000000
vt  0.232444 0.452988 0.000000
vt  0.232444 0.452988 0.000000
vt  0.393187 0.475432 0.000000
vt  0.393187 0.475432 0.000000
vt  0.559825 0.475297 0.000000
vt  0.559825 0.475297 0.000000
vt  0.559825 0.475297 0.000000
vt  0.341009 0.130629 0.000000
vt  0.341009 0.130629 0.000000
vt  0.341009 0.130629 0.000000
vt  0.163090 0.212991 0.000000
vt  0.163090 0.212991 0.000000
vt  0.125137 0.307271 0.000000
vt  0.125137 0.307271 0.000000
vt  0.179361 0.378127 0.000000
vt  0.179361 0.378127 0.000000
vt  0.282706 0.422008 0.000000
vt  0.282706 0.422008 0.000000
vt  0.409476 0.442583 0.000000
vt  0.409476 0.442583 0.000000
vt  0.543129 0.442458 0.000000
vt  0.543129 0.442458 0.000000
vt  0.543129 0.442458 0.000000
vt  0.669721 0.421614 0.000000
vt  0.669721 0.421614 0.000000
vt  0.772642 0.377420 0.000000
vt  0.772642 0.377420 0.000000
vt  0.826030 0.306221 0.000000
vt  0.826030 0.306221 0.000000
vt  0.786590 0.211771 0.000000
vt  0.786590 0.211771 0.000000
vt  0.606887 0.129991 0.000000
vt  0.606887 0.129991 0.000000
vt  0.691257 0.038398 0.000000
vt  0.691257 0.038398 0.000000
vt  0.935105 0.180620 0.000000
vt  0.935105 0.180620 0.000000
vt  0.951617 0.314789 0.000000
vt  0.951617 0.314789 0.000000
vt  0.860010 0.402386 0.000000
vt  0.860010 0.402386 0.000000
vt  0.720419 0.452554 0.000000
vt  0.720419 0.452554 0.000000
vt  0.341009 0.098985 0.000000
vt  0.341009 0.098985 0.000000
vt  0.341009 0.098985 0.000000
vt  0.163090 0.181939 0.000000
vt  0.163090 0.181939 0.000000
vt  0.125137 0.277947 0.000000
vt  0.125137 0.277947 0.000000
vt  0.179361 0.350814 0.000000
vt  0.179361 0.350814 0.000000
vt  0.282706 0.396232 0.000000
vt  0.282706 0.396232 0.000000
vt  0.409476 0.417601 0.000000
vt  0.409476 0.417601 0.000000
vt  0.543129 0.417471 0.000000
vt  0.543129 0.417471 0.000000
vt  0.543129 0.417471 0.000000
vt  0.606887 0.098346 0.000000
vt  0.606887 0.098346 0.000000
vt  0.786590 0.180704 0.000000
vt  0.786590 0.180704 0.000000
vt  0.826030 0.276871 0.000000
vt  0.826030 0.276871 0.000000
vt  0.772642 0.350085 0.000000
vt  0.772642 0.350085 0.000000
vt  0.669721 0.395824 0.000000
vt  0.669721 0.395824 0.000000

vn  0.000000 0.000000 -1.000000
vn  -0.000000 -1.000000 -0.000000
vn  -0.000000 -1.000000 -0.000000
vn  0.000000 0.000000 -1.000000
vn  0.500000 -0.866025 0.000000
vn  0.000000 0.000000 -1.000000
vn  0.866025 -0.500000 0.000000
vn  0.000000 0.000000 -1.000000
vn  1.000000 -0.000000 0.000000
vn  0.000000 0.000000 -1.000000
vn  0.866025 0.500000 0.000000
vn  0.000000 0.000000 -1.000000
vn  0.500000 0.866025 0.000000
vn  0.000000 0.000000 -1.000000
vn  0.000000 1.000000 0.000000
vn  0.000000 1.000000 0.000000
vn  0.000000 0.000000 -1.000000
vn  -0.500000 0.866025 -0.000000
vn  0.000000 0.000000 -1.000000
vn  -0.866025 0.500000 -0.000000
vn  0.000000 0.000000 -1.000000
vn  -1.000000 0.000000 -0.000000
vn  0.000000 0.000000 -1.000000
vn  -0.866025 -0.500000 -0.000000
vn  0.000000 0.000000 -1.000000
vn  -0.500000 -0.866025 -0.000000
vn  -0.000000 -1.000000 -0.000000
vn  0.000000 0.000000 -1.000000
vn  -0.000000 -1.000000 -0.000000
vn  0.500000 -0.866025 0.000000
vn  0.000000 0.000000 -1.000000
vn  0.866025 -0.500000 0.000000
vn  0.000000 0.000000 -1.000000
vn  1.000000 -0.000000 0.000000
vn  0.000000 0.000000 -1.000000
vn  0.866025 0.500000 0.000000
vn  0.000000 0.000000 -1.000000
vn  0.500000 0.866025 0.000000
vn  0.000000 0.000000 -1.000000
vn  0.000000 1.000000 0.000000
vn  0.000000 0.000000 -1.000000
vn  0.000000 1.000000 0.000000
vn  0.000000 0.000000 -1.000000
vn  -0.000000 -1.000000 -0.000000
vn  -0.000000 -1.000000 -0.000000
vn  0.000000 0.000000 -1.000000
vn  0.500000 -0.866025 0.000000
vn  0.000000 0.000000 -1.000000
vn  0.866025 -0.500000 0.000000
vn  0.000000 0.000000 -1.000000
vn  1.000000 -0.000000 0.000000
vn  0.000000 0.000000 -1.000000
vn  0.866025 0.500000 0.000000
vn  0.000000 0.000000 -1.000000
vn  0.500000 0.866025 0.000000
vn  0.000000 0.000000 -1.000000
vn  0.000000 1.000000 0.000000
vn  0.000000 1.000000 0.000000
vn  0.000000 0.000000 -1.000000
vn  -0.500000 0.866025 -0.000000
vn  0.000000 0.000000 -1.000000
vn  -0.866025 0.500000 -0.000000
vn  0.000000 0.000000 -1.000000
vn  -1.000000 0.000000 -0.000000
vn  0.000000 0.000000 -1.000000
vn  -0.866025 -0.500000 -0.000000
vn  0.000000 0.000000 -1.000000
vn  -0.500000 -0.866025 -0.000000
vn  0.000000 0.000000 -1.000000
vn  -0.500000 -0.866025 -0.000000
vn  0.000000 0.000000 -1.000000
vn  -0.866025 -0.500000 -0.000000
vn  0.000000 0.000000 -1.000000
vn  -1.000000 0.000000 -0.000000
vn  0.000000 0.000000 -1.000000
vn  -0.866025 0.500000 -0.000000
vn  0.000000 0.000000 -1.000000
vn  -0.500000 0.866025 -0.000000
vn  -0.000000 -1.000000 -0.000000
vn  -0.000000 -0.000000 1.000000
vn  -0.000000 -1.000000 -0.000000
vn  0.500000 -0.866025 0.000000
vn  -0.000000 -0.000000 1.000000
vn  0.866025 -0.500000 0.000000
vn  -0.000000 -0.000000 1.000000
vn  1.000000 -0.000000 0.000000
vn  -0.000000 -0.000000 1.000000
vn  0.866025 0.500000 0.000000
vn  -0.000000 -0.000000 1.000000
vn  0.500000 0.866025 0.000000
vn  -0.000000 -0.000000 1.000000
vn  0.000000 1.000000 0.000000
vn  -0.000000 -0.000000 1.000000
vn  0.000000 1.000000 0.000000
vn  -0.000000 -0.000000 1.000000
vn  0.000000 1.000000 0.000000
vn  0.000000 1.000000 0.000000
vn  -0.000000 -0.000000 1.000000
vn  -0.500000 0.866025 -0.000000
vn  -0.000000 -0.000000 1.000000
vn  -0.866025 0.500000 -0.000000
vn  -0.000000 -0.000000 1.000000
vn  -1.000000 0.000000 -0.000000
vn  -0.000000 -0.000000 1.000000
vn  -0.866025 -0.500000 -0.000000
vn  -0.000000 -0.000000 1.000000
vn  -0.500000 -0.866025 -0.000000
vn  -0.000000 -0.000000 1.000000
vn  -0.000000 -1.000000 -0.000000
vn  -0.000000 -1.000000 -0.000000
vn  -0.000000 -0.000000 1.000000
vn  0.500000 -0.866025 0.000000
vn  -0.000000 -0.000000 1.000000
vn  0.866025 -0.500000 0.000000
vn  -0.000000 -0.000000 1.000000
vn  1.000000 -0.000000 0.000000
vn  -0.000000 -0.000000 1.000000
vn  0.866025 0.500000 0.000000
vn  -0.000000 -0.000000 1.000000
vn  0.500000 0.866025 0.000000
vn  -0.000000 -0.000000 1.000000
vn  -0.500000 -0.866025 -0.000000
vn  -0.000000 -0.000000 1.000000
vn  -0.866025 -0.500000 -0.000000
vn  -0.000000 -0.000000 1.000000
vn  -1.000000 0.000000 -0.000000
vn  -0.000000 -0.000000 1.000000
vn  -0.866025 0.500000 -0.000000
vn  -0.000000 -0.000000 1.000000
vn  -0.500000 0.866025 -0.000000
vn  0.000000 1.000000 0.000000
vn  -0.000000 -0.000000 1.000000
vn  0.000000 1.000000 0.000000
vn  -0.500000 0.866025 -0.000000
vn  -0.000000 -0.000000 1.000000
vn  -0.866025 0.500000 -0.000000
vn  -0.000000 -0.000000 1.000000
vn  -1.000000 0.000000 -0.000000
vn  -0.000000 -0.000000 1.000000
vn  -0.866025 -0.500000 -0.000000
vn  -0.000000 -0.000000 1.000000
vn  -0.500000 -0.866025 -0.000000
vn  -0.000000 -0.000000 1.000000
vn  -0.000000 -1.000000 -0.000000
vn  -0.000000 -0.000000 1.000000
vn  -0.000000 -1.000000 -0.000000
vn  -0.000000 -0.000000 1.000000
vn  0.500000 0.866025 0.000000
vn  -0.000000 -0.000000 1.000000
vn  0.866025 0.500000 0.000000
vn  -0.000000 -0.000000 1.000000
vn  1.000000 -0.000000 0.000000
vn  -0.000000 -0.000000 1.000000
vn  0.866025 -0.500000 0.000000
vn  -0.000000 -0.000000 1.000000
vn  0.500000 -0.866025 0.000000


g 0
g 1
usemtl MTL0
f 12/12/12  4/4/4  1/1/1
f 27/27/27  2/2/2  5/5/5
f 14/14/14  12/12/12  1/1/1
f 25/25/25  14/14/14  1/1/1
f 70/70/70  26/26/26  3/3/3
f 70/70/70  3/3/3  29/29/29
f 10/10/10  6/6/6  4/4/4
f 30/30/30  5/5/5  7/7/7
f 12/12/12  10/10/10  4/4/4
f 30/30/30  27/27/27  5/5/5
f 10/10/10  8/8/8  6/6/6
f 32/32/32  7/7/7  9/9/9
f 32/32/32  30/30/30  7/7/7
f 34/34/34  9/9/9  11/11/11
f 34/34/34  32/32/32  9/9/9
f 36/36/36  11/11/11  13/13/13
f 36/36/36  34/34/34  11/11/11
f 38/38/38  13/13/13  15/15/15
f 38/38/38  36/36/36  13/13/13
f 25/25/25  17/17/17  14/14/14
f 42/42/42  16/16/16  18/18/18
f 40/40/40  38/38/38  15/15/15
f 23/23/23  19/19/19  17/17/17
f 78/78/78  18/18/18  20/20/20
f 25/25/25  23/23/23  17/17/17
f 78/78/78  42/42/42  18/18/18
f 23/23/23  21/21/21  19/19/19
f 76/76/76  20/20/20  22/22/22
f 78/78/78  20/20/20  76/76/76
f 74/74/74  22/22/22  24/24/24
f 76/76/76  22/22/22  74/74/74
f 72/72/72  24/24/24  26/26/26
f 74/74/74  24/24/24  72/72/72
f 72/72/72  26/26/26  70/70/70
f 43/43/43  28/28/28  31/31/31
f 67/67/67  28/28/28  43/43/43
f 69/69/69  28/28/28  67/67/67
f 46/46/46  31/31/31  33/33/33
f 46/46/46  43/43/43  31/31/31
f 48/48/48  33/33/33  35/35/35
f 48/48/48  46/46/46  33/33/33
f 52/52/52  35/35/35  37/37/37
f 50/50/50  48/48/48  35/35/35
f 52/52/52  50/50/50  35/35/35
f 54/54/54  37/37/37  39/39/39
f 54/54/54  52/52/52  37/37/37
f 54/54/54  39/39/39  41/41/41
f 56/56/56  54/54/54  41/41/41
f 77/77/77  56/56/56  41/41/41
f 79/79/79  44/44/44  47/47/47
f 122/122/122  68/68/68  45/45/45
f 122/122/122  45/45/45  81/81/81
f 82/82/82  47/47/47  49/49/49
f 82/82/82  79/79/79  47/47/47
f 84/84/84  49/49/49  51/51/51
f 84/84/84  82/82/82  49/49/49
f 86/86/86  51/51/51  53/53/53
f 86/86/86  84/84/84  51/51/51
f 88/88/88  53/53/53  55/55/55
f 88/88/88  86/86/86  53/53/53
f 90/90/90  55/55/55  57/57/57
f 90/90/90  88/88/88  55/55/55
f 77/77/77  59/59/59  56/56/56
f 94/94/94  58/58/58  60/60/60
f 92/92/92  90/90/90  57/57/57
f 75/75/75  61/61/61  59/59/59
f 130/130/130  60/60/60  62/62/62
f 77/77/77  75/75/75  59/59/59
f 130/130/130  94/94/94  60/60/60
f 73/73/73  63/63/63  61/61/61
f 128/128/128  62/62/62  64/64/64
f 75/75/75  73/73/73  61/61/61
f 130/130/130  62/62/62  128/128/128
f 73/73/73  65/65/65  63/63/63
f 126/126/126  64/64/64  66/66/66
f 128/128/128  64/64/64  126/126/126
f 71/71/71  67/67/67  65/65/65
f 124/124/124  66/66/66  68/68/68
f 73/73/73  71/71/71  65/65/65
f 126/126/126  66/66/66  124/124/124
f 71/71/71  69/69/69  67/67/67
f 124/124/124  68/68/68  122/122/122
f 95/95/95  80/80/80  83/83/83
f 119/119/119  80/80/80  95/95/95
f 121/121/121  80/80/80  119/119/119
f 100/100/100  83/83/83  85/85/85
f 98/98/98  95/95/95  83/83/83
f 100/100/100  98/98/98  83/83/83
f 89/89/89  85/85/85  87/87/87
f 102/102/102  85/85/85  89/89/89
f 102/102/102  100/100/100  85/85/85
f 104/104/104  89/89/89  91/91/91
f 104/104/104  102/102/102  89/89/89
f 106/106/106  91/91/91  93/93/93
f 106/106/106  104/104/104  91/91/91
f 108/108/108  106/106/106  93/93/93
f 129/129/129  108/108/108  93/93/93
f 131/131/131  96/96/96  99/99/99
f 148/148/148  120/120/120  97/97/97
f 148/148/148  97/97/97  133/133/133
f 134/134/134  99/99/99  101/101/101
f 134/134/134  131/131/131  99/99/99
f 136/136/136  101/101/101  103/103/103
f 136/136/136  134/134/134  101/101/101
f 138/138/138  103/103/103  105/105/105
f 138/138/138  136/136/136  103/103/103
f 140/140/140  105/105/105  107/107/107
f 140/140/140  138/138/138  105/105/105
f 142/142/142  107/107/107  109/109/109
f 142/142/142  140/140/140  107/107/107
f 129/129/129  111/111/111  108/108/108
f 146/146/146  110/110/110  112/112/112
f 144/144/144  142/142/142  109/109/109
f 129/129/129  113/113/113  111/111/111
f 156/156/156  112/112/112  114/114/114
f 156/156/156  146/146/146  112/112/112
f 127/127/127  115/115/115  113/113/113
f 154/154/154  114/114/114  116/116/116
f 129/129/129  127/127/127  113/113/113
f 156/156/156  114/114/114  154/154/154
f 123/123/123  117/117/117  115/115/115
f 152/152/152  116/116/116  118/118/118
f 127/127/127  123/123/123  115/115/115
f 154/154/154  116/116/116  152/152/152
f 121/121/121  119/119/119  117/117/117
f 150/150/150  118/118/118  120/120/120
f 123/123/123  121/121/121  117/117/117
f 152/152/152  118/118/118  150/150/150
f 150/150/150  120/120/120  148/148/148
f 127/127/127  125/125/125  123/123/123
f 145/145/145  132/132/132  135/135/135
f 155/155/155  132/132/132  145/145/145
f 155/155/155  147/147/147  132/132/132
f 143/143/143  135/135/135  137/137/137
f 145/145/145  135/135/135  143/143/143
f 141/141/141  137/137/137  139/139/139
f 143/143/143  137/137/137  141/141/141
f 153/153/153  149/149/149  147/147/147
f 155/155/155  153/153/153  147/147/147
f 153/153/153  151/151/151  149/149/149
