mtllib 11.mtl

v  2540.000000 13970.000000 -762.000000
v  2540.000000 13970.000000 -762.000000
v  2540.000000 13970.000000 -762.000000
v  2540.000000 17018.000000 -762.000000
v  2540.000000 17018.000000 -762.000000
v  2540.000000 17018.000000 -762.000000
v  1524.000000 17018.000000 -762.000000
v  1524.000000 17018.000000 -762.000000
v  1524.000000 17018.000000 -762.000000
v  1524.000000 13970.000000 -762.000000
v  1524.000000 13970.000000 -762.000000
v  1524.000000 13970.000000 -762.000000
v  1524.000000 13970.000000 762.000000
v  1524.000000 13970.000000 762.000000
v  1524.000000 13970.000000 762.000000
v  1524.000000 13589.069021 659.928525
v  1524.000000 13589.069021 659.928525
v  1524.000000 13310.096421 381.018633
v  1524.000000 13310.096421 381.018633
v  1524.000000 13208.000000 0.000000
v  1524.000000 13208.000000 0.000000
v  1524.000000 13310.096421 -381.018633
v  1524.000000 13310.096421 -381.018633
v  1524.000000 13589.069021 -659.928525
v  1524.000000 13589.069021 -659.928525
v  1524.000000 17399.010087 -659.888646
v  1524.000000 17399.010087 -659.888646
v  1524.000000 17677.874585 -381.063685
v  1524.000000 17677.874585 -381.063685
v  1524.000000 17780.001397 0.000000
v  1524.000000 17780.001397 0.000000
v  1524.000000 17677.874585 381.063685
v  1524.000000 17677.874585 381.063685
v  1524.000000 17399.010087 659.888646
v  1524.000000 17399.010087 659.888646
v  1524.000000 17018.000000 762.000000
v  1524.000000 17018.000000 762.000000
v  1524.000000 17018.000000 762.000000
v  2540.000000 13970.000000 762.000000
v  2540.000000 13970.000000 762.000000
v  2540.000000 13970.000000 762.000000
v  2540.000000 17018.000000 762.000000
v  2540.000000 17018.000000 762.000000
v  2540.000000 17018.000000 762.000000
v  2540.000000 13589.069021 -659.928525
v  2540.000000 13589.069021 -659.928525
v  2540.000000 13310.096421 -381.018633
v  2540.000000 13310.096421 -381.018633
v  2540.000000 13208.000000 0.000000
v  2540.000000 13208.000000 0.000000
v  2540.000000 13310.096421 381.018633
v  2540.000000 13310.096421 381.018633
v  2540.000000 13589.069021 659.928525
v  2540.000000 13589.069021 659.928525
v  2540.000000 17399.010087 659.888646
v  2540.000000 17399.010087 659.888646
v  2540.000000 17677.874585 381.063685
v  2540.000000 17677.874585 381.063685
v  2540.000000 17780.001397 0.000000
v  2540.000000 17780.001397 0.000000
v  2540.000000 17677.874585 -381.063685
v  2540.000000 17677.874585 -381.063685
v  2540.000000 17399.010087 -659.888646
v  2540.000000 17399.010087 -659.888646

vt  0.010135 0.000557 0.000000
vt  0.010135 0.000557 0.000000
vt  0.010135 0.000557 0.000000
vt  0.041828 0.009914 0.000000
vt  0.041828 0.009914 0.000000
vt  0.041828 0.009914 0.000000
vt  0.100674 0.009603 0.000000
vt  0.100674 0.009603 0.000000
vt  0.100674 0.009603 0.000000
vt  0.081327 0.000000 0.000000
vt  0.081327 0.000000 0.000000
vt  0.081327 0.000000 0.000000
vt  0.081327 0.108341 0.000000
vt  0.081327 0.108341 0.000000
vt  0.081327 0.108341 0.000000
vt  0.078306 0.102394 0.000000
vt  0.078306 0.102394 0.000000
vt  0.075985 0.082604 0.000000
vt  0.075985 0.082604 0.000000
vt  0.075112 0.054171 0.000000
vt  0.075112 0.054171 0.000000
vt  0.075985 0.025738 0.000000
vt  0.075985 0.025738 0.000000
vt  0.078306 0.005947 0.000000
vt  0.078306 0.005947 0.000000
vt  0.102620 0.016407 0.000000
vt  0.102620 0.016407 0.000000
vt  0.103991 0.032698 0.000000
vt  0.103991 0.032698 0.000000
vt  0.104483 0.054171 0.000000
vt  0.104483 0.054171 0.000000
vt  0.103991 0.075644 0.000000
vt  0.103991 0.075644 0.000000
vt  0.102620 0.091935 0.000000
vt  0.102620 0.091935 0.000000
vt  0.100674 0.098739 0.000000
vt  0.100674 0.098739 0.000000
vt  0.100674 0.098739 0.000000
vt  0.010135 0.107785 0.000000
vt  0.010135 0.107785 0.000000
vt  0.010135 0.107785 0.000000
vt  0.041828 0.098427 0.000000
vt  0.041828 0.098427 0.000000
vt  0.041828 0.098427 0.000000
vt  0.005206 0.006470 0.000000
vt  0.005206 0.006470 0.000000
vt  0.001423 0.026059 0.000000
vt  0.001423 0.026059 0.000000
vt  0.000000 0.054171 0.000000
vt  0.000000 0.054171 0.000000
vt  0.001423 0.082282 0.000000
vt  0.001423 0.082282 0.000000
vt  0.005206 0.101871 0.000000
vt  0.005206 0.101871 0.000000
vt  0.045027 0.091682 0.000000
vt  0.045027 0.091682 0.000000
vt  0.047283 0.075504 0.000000
vt  0.047283 0.075504 0.000000
vt  0.048091 0.054171 0.000000
vt  0.048091 0.054171 0.000000
vt  0.047283 0.032837 0.000000
vt  0.047283 0.032837 0.000000
vt  0.045027 0.016659 0.000000
vt  0.045027 0.016659 0.000000

vn  0.000000 0.000000 -25.400000
vn  25.400000 0.000000 0.000000
vn  0.000000 0.000000 -25.400000
vn  0.000000 0.000000 -25.400000
vn  25.400000 0.000000 0.000000
vn  0.000000 0.000000 -25.400000
vn  0.000000 0.000000 -25.400000
vn  -25.400000 0.000000 0.000000
vn  0.000000 0.000000 -25.400000
vn  0.000000 0.000000 -25.400000
vn  -25.400000 0.000000 0.000000
vn  0.000000 0.000000 -25.400000
vn  -25.400000 0.000000 0.000000
vn  0.000000 0.000000 25.400000
vn  0.000000 -0.000000 25.400000
vn  -25.400000 0.000000 0.000000
vn  0.000000 -12.699085 21.997573
vn  -25.400000 0.000000 0.000000
vn  0.000000 -21.996105 12.701629
vn  -25.400000 0.000000 0.000000
vn  0.000000 -25.400000 -0.000000
vn  -25.400000 0.000000 0.000000
vn  0.000000 -21.996105 -12.701629
vn  -25.400000 0.000000 0.000000
vn  0.000000 -12.699085 -21.997573
vn  -25.400000 0.000000 0.000000
vn  0.000000 12.700582 -21.996709
vn  -25.400000 0.000000 0.000000
vn  0.000000 21.995820 -12.702123
vn  -25.400000 0.000000 0.000000
vn  0.000000 25.400000 0.000000
vn  -25.400000 0.000000 0.000000
vn  0.000000 21.995820 12.702123
vn  -25.400000 0.000000 0.000000
vn  0.000000 12.700582 21.996709
vn  -25.400000 0.000000 0.000000
vn  0.000000 0.000000 25.400000
vn  0.000000 0.000000 25.400000
vn  0.000000 0.000000 25.400000
vn  25.400000 0.000000 0.000000
vn  0.000000 -0.000000 25.400000
vn  0.000000 0.000000 25.400000
vn  25.400000 0.000000 0.000000
vn  0.000000 0.000000 25.400000
vn  25.400000 0.000000 0.000000
vn  0.000000 -12.699085 -21.997573
vn  25.400000 0.000000 0.000000
vn  0.000000 -21.996105 -12.701629
vn  25.400000 0.000000 0.000000
vn  0.000000 -25.400000 0.000000
vn  25.400000 0.000000 0.000000
vn  0.000000 -21.996105 12.701629
vn  25.400000 0.000000 0.000000
vn  0.000000 -12.699085 21.997573
vn  25.400000 0.000000 0.000000
vn  0.000000 12.700582 21.996709
vn  25.400000 0.000000 0.000000
vn  0.000000 21.995820 12.702123
vn  25.400000 0.000000 0.000000
vn  0.000000 25.400000 0.000000
vn  25.400000 0.000000 0.000000
vn  0.000000 21.995820 -12.702123
vn  25.400000 0.000000 0.000000
vn  0.000000 12.700582 -21.996709


g 0
g 1
usemtl DEFAULT_MTL
f 7/7/7  4/4/4  1/1/1
f 40/40/40  2/2/2  5/5/5
f 10/10/10  7/7/7  1/1/1
f 46/46/46  12/12/12  3/3/3
f 53/53/53  2/2/2  40/40/40
f 53/53/53  45/45/45  2/2/2
f 27/27/27  6/6/6  9/9/9
f 64/64/64  6/6/6  27/27/27
f 43/43/43  40/40/40  5/5/5
f 63/63/63  43/43/43  5/5/5
f 36/36/36  8/8/8  11/11/11
f 34/34/34  26/26/26  8/8/8
f 36/36/36  34/34/34  8/8/8
f 24/24/24  13/13/13  11/11/11
f 36/36/36  11/11/11  13/13/13
f 46/46/46  25/25/25  12/12/12
f 24/24/24  16/16/16  13/13/13
f 41/41/41  15/15/15  17/17/17
f 42/42/42  37/37/37  14/14/14
f 42/42/42  14/14/14  39/39/39
f 22/22/22  18/18/18  16/16/16
f 54/54/54  17/17/17  19/19/19
f 24/24/24  22/22/22  16/16/16
f 54/54/54  41/41/41  17/17/17
f 22/22/22  20/20/20  18/18/18
f 52/52/52  19/19/19  21/21/21
f 54/54/54  19/19/19  52/52/52
f 50/50/50  21/21/21  23/23/23
f 52/52/52  21/21/21  50/50/50
f 48/48/48  23/23/23  25/25/25
f 50/50/50  23/23/23  48/48/48
f 48/48/48  25/25/25  46/46/46
f 32/32/32  28/28/28  26/26/26
f 64/64/64  27/27/27  29/29/29
f 34/34/34  32/32/32  26/26/26
f 32/32/32  30/30/30  28/28/28
f 62/62/62  29/29/29  31/31/31
f 64/64/64  29/29/29  62/62/62
f 60/60/60  31/31/31  33/33/33
f 62/62/62  31/31/31  60/60/60
f 58/58/58  33/33/33  35/35/35
f 60/60/60  33/33/33  58/58/58
f 56/56/56  35/35/35  38/38/38
f 58/58/58  35/35/35  56/56/56
f 56/56/56  38/38/38  44/44/44
f 63/63/63  55/55/55  43/43/43
f 51/51/51  47/47/47  45/45/45
f 53/53/53  51/51/51  45/45/45
f 51/51/51  49/49/49  47/47/47
f 61/61/61  57/57/57  55/55/55
f 63/63/63  61/61/61  55/55/55
f 61/61/61  59/59/59  57/57/57
