mtllib 3.mtl

v  1616.743541 0.000000 1007.554130
v  1616.743541 0.000000 1007.554130
v  1616.743541 0.000000 1007.554130
v  1900.127942 0.000000 -135.510656
v  1900.127942 0.000000 -135.510656
v  1457.651274 0.000000 -1226.328660
v  1457.651274 0.000000 -1226.328660
v  458.782606 -0.000000 -1848.823340
v  458.782606 -0.000000 -1848.823340
v  -715.410294 -0.000000 -1765.513365
v  -715.410294 -0.000000 -1765.513365
v  -1616.743541 -0.000000 -1007.554130
v  -1616.743541 -0.000000 -1007.554130
v  -1616.743541 -0.000000 -1007.554130
v  -1900.127942 -0.000000 135.510656
v  -1900.127942 -0.000000 135.510656
v  -1457.651274 -0.000000 1226.328660
v  -1457.651274 -0.000000 1226.328660
v  -458.782606 0.000000 1848.823340
v  -458.782606 0.000000 1848.823340
v  715.410294 0.000000 1765.513365
v  715.410294 0.000000 1765.513365
v  1616.743541 25400.000000 1007.554130
v  1616.743541 25400.000000 1007.554130
v  1616.743541 25400.000000 1007.554130
v  715.410294 25400.000000 1765.513365
v  715.410294 25400.000000 1765.513365
v  -458.782606 25400.000000 1848.823340
v  -458.782606 25400.000000 1848.823340
v  -1457.651274 25400.000000 1226.328660
v  -1457.651274 25400.000000 1226.328660
v  -1900.127942 25400.000000 135.510656
v  -1900.127942 25400.000000 135.510656
v  -1616.743541 25400.000000 -1007.554130
v  -1616.743541 25400.000000 -1007.554130
v  -1616.743541 25400.000000 -1007.554130
v  -715.410294 25400.000000 -1765.513365
v  -715.410294 25400.000000 -1765.513365
v  458.782606 25400.000000 -1848.823340
v  458.782606 25400.000000 -1848.823340
v  1457.651274 25400.000000 -1226.328660
v  1457.651274 25400.000000 -1226.328660
v  1900.127942 25400.000000 -135.510656
v  1900.127942 25400.000000 -135.510656
v  2001.700452 13970.000000 349.598772
v  2001.700452 13970.000000 349.598772
v  2001.700452 13970.000000 349.598772
v  2001.700452 17018.000000 349.598772
v  2001.700452 17018.000000 349.598772
v  2001.700452 17018.000000 349.598772
v  1979.913530 17400.116318 457.128445
v  1979.913530 17400.116318 457.128445
v  1896.332390 17676.493549 730.032512
v  1896.332390 17676.493549 730.032512
v  1724.526443 17780.000000 1074.724405
v  1724.526443 17780.000000 1074.724405
v  1724.526443 17780.000000 1074.724405
v  1724.526443 25273.000000 1074.724405
v  1724.526443 25273.000000 1074.724405
v  1724.526443 25273.000000 1074.724405
v  1724.526443 25273.000000 1074.724405
v  2026.878355 25273.000000 -144.180903
v  2026.878355 25273.000000 -144.180903
v  1555.031627 25273.000000 -1308.014006
v  1555.031627 25273.000000 -1308.014006
v  489.215670 25273.000000 -1972.230217
v  489.215670 25273.000000 -1972.230217
v  -763.464044 25273.000000 -1883.121518
v  -763.464044 25273.000000 -1883.121518
v  -1724.526443 25273.000000 -1074.724405
v  -1724.526443 25273.000000 -1074.724405
v  -1724.526443 25273.000000 -1074.724405
v  -1724.526443 25273.000000 -1074.724405
v  -1724.526443 127.000000 -1074.724405
v  -1724.526443 127.000000 -1074.724405
v  -1724.526443 127.000000 -1074.724405
v  -1724.526443 127.000000 -1074.724405
v  -763.464044 127.000000 -1883.121518
v  -763.464044 127.000000 -1883.121518
v  489.215670 127.000000 -1972.230217
v  489.215670 127.000000 -1972.230217
v  1555.031627 127.000000 -1308.014006
v  1555.031627 127.000000 -1308.014006
v  2026.878355 127.000000 -144.180903
v  2026.878355 127.000000 -144.180903
v  1724.526443 127.000000 1074.724405
v  1724.526443 127.000000 1074.724405
v  1724.526443 127.000000 1074.724405
v  1724.526443 127.000000 1074.724405
v  1724.526443 13208.000000 1074.724405
v  1724.526443 13208.000000 1074.724405
v  1724.526443 13208.000000 1074.724405
v  1896.183760 13311.278917 730.418475
v  1896.183760 13311.278917 730.418475
v  1979.957418 13588.197460 456.938315
v  1979.957418 13588.197460 456.938315
v  763.464044 127.000000 1883.121518
v  763.464044 127.000000 1883.121518
v  -489.215670 127.000000 1972.230217
v  -489.215670 127.000000 1972.230217
v  -1555.031627 127.000000 1308.014006
v  -1555.031627 127.000000 1308.014006
v  -2026.878355 127.000000 144.180903
v  -2026.878355 127.000000 144.180903
v  -2026.878355 25273.000000 144.180903
v  -2026.878355 25273.000000 144.180903
v  -1555.031627 25273.000000 1308.014006
v  -1555.031627 25273.000000 1308.014006
v  -489.215670 25273.000000 1972.230217
v  -489.215670 25273.000000 1972.230217
v  763.464044 25273.000000 1883.121518
v  763.464044 25273.000000 1883.121518
v  1491.026757 17676.701090 1380.530047
v  1491.026757 17676.701090 1380.530047
v  1282.445730 17399.812218 1576.184300
v  1282.445730 17399.812218 1576.184300
v  1195.657148 17018.000000 1642.993604
v  1195.657148 17018.000000 1642.993604
v  1195.657148 17018.000000 1642.993604
v  1195.657148 13970.000000 1642.993604
v  1195.657148 13970.000000 1642.993604
v  1195.657148 13970.000000 1642.993604
v  1282.588082 13587.892853 1576.068467
v  1282.588082 13587.892853 1576.068467
v  1490.720185 13311.547677 1380.861083
v  1490.720185 13311.547677 1380.861083
v  890.373181 13970.000000 1452.740720
v  890.373181 13970.000000 1452.740720
v  890.373181 13970.000000 1452.740720
v  890.373181 17018.000000 1452.740720
v  890.373181 17018.000000 1452.740720
v  890.373181 17018.000000 1452.740720
v  1008.415489 17556.815367 1263.327432
v  1008.415489 17556.815367 1263.327432
v  1293.394832 17780.000000 806.043304
v  1293.394832 17780.000000 806.043304
v  1578.374175 17556.815367 348.759175
v  1578.374175 17556.815367 348.759175
v  1696.416484 17018.000000 159.345887
v  1696.416484 17018.000000 159.345887
v  1696.416484 17018.000000 159.345887
v  1696.416484 13970.000000 159.345887
v  1696.416484 13970.000000 159.345887
v  1696.416484 13970.000000 159.345887
v  1578.374175 13431.184633 348.759175
v  1578.374175 13431.184633 348.759175
v  1293.394832 13208.000000 806.043304
v  1293.394832 13208.000000 806.043304
v  1008.415489 13431.184633 1263.327432
v  1008.415489 13431.184633 1263.327432

vt  0.500000 0.709898 0.000000
vt  0.500000 0.709898 0.000000
vt  0.500000 0.709898 0.000000
vt  0.500000 0.473185 0.000000
vt  0.500000 0.473185 0.000000
vt  0.500000 0.236576 0.000000
vt  0.500000 0.236576 0.000000
vt  0.500000 0.000000 0.000000
vt  0.500000 0.000000 0.000000
vt  0.000000 0.053390 0.000000
vt  0.000000 0.053390 0.000000
vt  0.000000 0.290102 0.000000
vt  0.000000 0.290102 0.000000
vt  0.000000 0.290102 0.000000
vt  0.000000 0.526815 0.000000
vt  0.000000 0.526815 0.000000
vt  0.000000 0.763424 0.000000
vt  0.000000 0.763424 0.000000
vt  1.000000 1.000000 0.000000
vt  1.000000 1.000000 0.000000
vt  0.500000 0.946610 0.000000
vt  0.500000 0.946610 0.000000
vt  0.739883 0.514902 0.000000
vt  0.739883 0.514902 0.000000
vt  0.739883 0.514902 0.000000
vt  0.745518 0.526127 0.000000
vt  0.745518 0.526127 0.000000
vt  0.752874 0.527362 0.000000
vt  0.752874 0.527362 0.000000
vt  0.759124 0.518140 0.000000
vt  0.759124 0.518140 0.000000
vt  0.761884 0.502004 0.000000
vt  0.761884 0.502004 0.000000
vt  0.760117 0.485098 0.000000
vt  0.760117 0.485098 0.000000
vt  0.760117 0.485098 0.000000
vt  0.754482 0.473873 0.000000
vt  0.754482 0.473873 0.000000
vt  0.747126 0.472638 0.000000
vt  0.747126 0.472638 0.000000
vt  0.740876 0.481860 0.000000
vt  0.740876 0.481860 0.000000
vt  0.738116 0.497996 0.000000
vt  0.738116 0.497996 0.000000
vt  0.727350 0.509328 0.000000
vt  0.727350 0.509328 0.000000
vt  0.727350 0.509328 0.000000
vt  0.731365 0.507683 0.000000
vt  0.731365 0.507683 0.000000
vt  0.731365 0.507683 0.000000
vt  0.731968 0.509829 0.000000
vt  0.731968 0.509829 0.000000
vt  0.732991 0.515457 0.000000
vt  0.732991 0.515457 0.000000
vt  0.734611 0.522632 0.000000
vt  0.734611 0.522632 0.000000
vt  0.734611 0.522632 0.000000
vt  0.739157 0.515969 0.000000
vt  0.739157 0.515969 0.000000
vt  0.739157 0.515969 0.000000
vt  0.739157 0.515969 0.000000
vt  0.737263 0.497858 0.000000
vt  0.737263 0.497858 0.000000
vt  0.740220 0.480561 0.000000
vt  0.740220 0.480561 0.000000
vt  0.746920 0.470674 0.000000
vt  0.746920 0.470674 0.000000
vt  0.754806 0.472001 0.000000
vt  0.754806 0.472001 0.000000
vt  0.760843 0.484031 0.000000
vt  0.760843 0.484031 0.000000
vt  0.760843 0.484031 0.000000
vt  0.760843 0.484031 0.000000
vt  0.988300 0.290559 0.000000
vt  0.988300 0.290559 0.000000
vt  0.988300 0.290559 0.000000
vt  0.988300 0.290559 0.000000
vt  0.973765 0.055257 0.000000
vt  0.973765 0.055257 0.000000
vt  0.540424 0.002877 0.000000
vt  0.540424 0.002877 0.000000
vt  0.512969 0.237226 0.000000
vt  0.512969 0.237226 0.000000
vt  0.509959 0.473306 0.000000
vt  0.509959 0.473306 0.000000
vt  0.511700 0.709441 0.000000
vt  0.511700 0.709441 0.000000
vt  0.511700 0.709441 0.000000
vt  0.511700 0.709441 0.000000
vt  0.729337 0.530323 0.000000
vt  0.729337 0.530323 0.000000
vt  0.729337 0.530323 0.000000
vt  0.727480 0.520440 0.000000
vt  0.727480 0.520440 0.000000
vt  0.726971 0.512528 0.000000
vt  0.726971 0.512528 0.000000
vt  0.526235 0.944743 0.000000
vt  0.526235 0.944743 0.000000
vt  0.959576 0.997123 0.000000
vt  0.959576 0.997123 0.000000
vt  0.987031 0.762774 0.000000
vt  0.987031 0.762774 0.000000
vt  0.990041 0.526694 0.000000
vt  0.990041 0.526694 0.000000
vt  0.762737 0.502142 0.000000
vt  0.762737 0.502142 0.000000
vt  0.759780 0.519439 0.000000
vt  0.759780 0.519439 0.000000
vt  0.753080 0.529326 0.000000
vt  0.753080 0.529326 0.000000
vt  0.745194 0.527999 0.000000
vt  0.745194 0.527999 0.000000
vt  0.736607 0.529251 0.000000
vt  0.736607 0.529251 0.000000
vt  0.738291 0.533933 0.000000
vt  0.738291 0.533933 0.000000
vt  0.738836 0.536161 0.000000
vt  0.738836 0.536161 0.000000
vt  0.738836 0.536161 0.000000
vt  0.736411 0.543933 0.000000
vt  0.736411 0.543933 0.000000
vt  0.736411 0.543933 0.000000
vt  0.735021 0.543300 0.000000
vt  0.735021 0.543300 0.000000
vt  0.732251 0.538690 0.000000
vt  0.732251 0.538690 0.000000
vt  0.739870 0.538947 0.000000
vt  0.739870 0.538947 0.000000
vt  0.739870 0.538947 0.000000
vt  0.741681 0.532030 0.000000
vt  0.741681 0.532030 0.000000
vt  0.741681 0.532030 0.000000
vt  0.740869 0.527010 0.000000
vt  0.740869 0.527010 0.000000
vt  0.738443 0.517018 0.000000
vt  0.738443 0.517018 0.000000
vt  0.735730 0.507451 0.000000
vt  0.735730 0.507451 0.000000
vt  0.734187 0.503509 0.000000
vt  0.734187 0.503509 0.000000
vt  0.734187 0.503509 0.000000
vt  0.730768 0.504264 0.000000
vt  0.730768 0.504264 0.000000
vt  0.730768 0.504264 0.000000
vt  0.731382 0.509711 0.000000
vt  0.731382 0.509711 0.000000
vt  0.734464 0.522847 0.000000
vt  0.734464 0.522847 0.000000
vt  0.738073 0.535223 0.000000
vt  0.738073 0.535223 0.000000

vn  0.000000 -25.400000 0.000000
vn  15.242804 -17.960512 9.499311
vn  15.242804 -17.960512 9.499311
vn  0.000000 -25.400000 0.000000
vn  17.915243 -17.960512 -1.274391
vn  0.000000 -25.400000 0.000000
vn  13.744668 -17.960512 -11.561320
vn  0.000000 -25.400000 0.000000
vn  4.324096 -17.960512 -17.432217
vn  0.000000 -25.400000 0.000000
vn  -6.748133 -17.960512 -16.644600
vn  0.000000 -25.400000 0.000000
vn  -15.242804 -17.960512 -9.499311
vn  -15.242804 -17.960512 -9.499311
vn  0.000000 -25.400000 0.000000
vn  -17.915243 -17.960512 1.274391
vn  0.000000 -25.400000 0.000000
vn  -13.744668 -17.960512 11.561320
vn  0.000000 -25.400000 0.000000
vn  -4.324096 -17.960512 17.432217
vn  0.000000 -25.400000 0.000000
vn  6.748133 -17.960512 16.644600
vn  -0.000000 25.400000 -0.000000
vn  15.242804 17.960512 9.499311
vn  15.242804 17.960512 9.499311
vn  -0.000000 25.400000 -0.000000
vn  6.748133 17.960512 16.644600
vn  -0.000000 25.400000 -0.000000
vn  -4.324096 17.960512 17.432217
vn  -0.000000 25.400000 -0.000000
vn  -13.744668 17.960512 11.561320
vn  -0.000000 25.400000 -0.000000
vn  -17.915243 17.960512 1.274391
vn  -0.000000 25.400000 -0.000000
vn  -15.242804 17.960512 -9.499311
vn  -15.242804 17.960512 -9.499311
vn  -0.000000 25.400000 -0.000000
vn  -6.748133 17.960512 -16.644600
vn  -0.000000 25.400000 -0.000000
vn  4.324096 17.960512 -17.432217
vn  -0.000000 25.400000 -0.000000
vn  13.744668 17.960512 -11.561320
vn  -0.000000 25.400000 -0.000000
vn  17.915243 17.960512 -1.274391
vn  25.021256 0.000000 4.369985
vn  -13.434055 0.000000 21.556581
vn  -13.434055 -0.000000 21.556581
vn  25.021256 0.000000 4.369985
vn  -13.434055 -0.000000 21.556581
vn  -13.434055 0.000000 21.556581
vn  24.748919 0.000000 5.714106
vn  -11.623247 -12.735908 18.650919
vn  23.704155 0.000000 9.125406
vn  -6.758573 -21.951506 10.844955
vn  21.556581 0.000000 13.434055
vn  21.556581 0.000000 13.434055
vn  0.000000 -25.400000 -0.000000
vn  21.556581 0.000000 13.434055
vn  21.556581 0.000000 13.434055
vn  15.242804 17.960512 9.499311
vn  15.242804 17.960512 9.499311
vn  25.335979 0.000000 -1.802261
vn  17.915243 17.960512 -1.274391
vn  19.437895 0.000000 -16.350175
vn  13.744668 17.960512 -11.561320
vn  6.115196 -0.000000 -24.652878
vn  4.324096 17.960512 -17.432217
vn  -9.543301 -0.000000 -23.539019
vn  -6.748133 17.960512 -16.644600
vn  -21.556581 -0.000000 -13.434055
vn  -21.556581 -0.000000 -13.434055
vn  -15.242804 17.960512 -9.499311
vn  -15.242804 17.960512 -9.499311
vn  -21.556581 -0.000000 -13.434055
vn  -21.556581 -0.000000 -13.434055
vn  -15.242804 -17.960512 -9.499311
vn  -15.242804 -17.960512 -9.499311
vn  -9.543301 -0.000000 -23.539019
vn  -6.748133 -17.960512 -16.644600
vn  6.115196 -0.000000 -24.652878
vn  4.324096 -17.960512 -17.432217
vn  19.437895 0.000000 -16.350175
vn  13.744668 -17.960512 -11.561320
vn  25.335979 0.000000 -1.802261
vn  17.915243 -17.960512 -1.274391
vn  21.556581 0.000000 13.434055
vn  21.556581 0.000000 13.434055
vn  15.242804 -17.960512 9.499311
vn  15.242804 -17.960512 9.499311
vn  21.556581 0.000000 13.434055
vn  21.556581 0.000000 13.434055
vn  0.000000 25.400000 -0.000000
vn  23.702297 0.000000 9.130231
vn  -6.751435 21.959357 10.833502
vn  24.749468 0.000000 5.711729
vn  -11.626468 12.725394 18.656087
vn  9.543301 0.000000 23.539019
vn  6.748133 -17.960512 16.644600
vn  -6.115196 0.000000 24.652878
vn  -4.324096 -17.960512 17.432217
vn  -19.437895 -0.000000 16.350175
vn  -13.744668 -17.960512 11.561320
vn  -25.335979 -0.000000 1.802261
vn  -17.915243 -17.960512 1.274391
vn  -25.335979 -0.000000 1.802261
vn  -17.915243 17.960512 1.274391
vn  -19.437895 -0.000000 16.350175
vn  -13.744668 17.960512 11.561320
vn  -6.115196 0.000000 24.652878
vn  -4.324096 17.960512 17.432217
vn  9.543301 0.000000 23.539019
vn  6.748133 17.960512 16.644600
vn  18.637834 0.000000 17.256626
vn  6.752039 -21.958694 -10.834470
vn  16.030572 0.000000 19.702304
vn  11.626371 -12.725712 -18.655931
vn  14.945714 0.000000 20.537420
vn  13.434055 -0.000000 -21.556581
vn  13.434055 0.000000 -21.556581
vn  14.945714 0.000000 20.537420
vn  13.434055 0.000000 -21.556581
vn  13.434055 0.000000 -21.556581
vn  16.032351 0.000000 19.700856
vn  11.623343 12.735597 -18.651072
vn  18.634002 0.000000 17.260764
vn  6.759827 21.950127 -10.846967
vn  21.556581 0.000000 13.434055
vn  13.434055 0.000000 -21.556581
vn  13.434055 0.000000 -21.556581
vn  21.556581 0.000000 13.434055
vn  13.434055 -0.000000 -21.556581
vn  13.434055 0.000000 -21.556581
vn  21.556581 0.000000 13.434055
vn  9.499311 -17.960512 -15.242804
vn  21.556581 0.000000 13.434055
vn  0.000000 -25.400000 0.000000
vn  21.556581 0.000000 13.434055
vn  -9.499311 -17.960512 15.242804
vn  21.556581 0.000000 13.434055
vn  -13.434055 -0.000000 21.556581
vn  -13.434055 0.000000 21.556581
vn  21.556581 0.000000 13.434055
vn  -13.434055 0.000000 21.556581
vn  -13.434055 -0.000000 21.556581
vn  21.556581 0.000000 13.434055
vn  -9.499311 17.960512 15.242804
vn  21.556581 0.000000 13.434055
vn  -0.000000 25.400000 -0.000000
vn  21.556581 0.000000 13.434055
vn  9.499311 17.960512 -15.242804


g 0
g 1
usemtl DEFAULT_MTL
f 10/10/10  4/4/4  1/1/1
f 89/89/89  3/3/3  5/5/5
f 12/12/12  10/10/10  1/1/1
f 21/21/21  12/12/12  1/1/1
f 98/98/98  22/22/22  2/2/2
f 98/98/98  2/2/2  88/88/88
f 8/8/8  6/6/6  4/4/4
f 85/85/85  5/5/5  7/7/7
f 10/10/10  8/8/8  4/4/4
f 89/89/89  5/5/5  85/85/85
f 83/83/83  7/7/7  9/9/9
f 85/85/85  7/7/7  83/83/83
f 81/81/81  9/9/9  11/11/11
f 83/83/83  9/9/9  81/81/81
f 79/79/79  11/11/11  14/14/14
f 81/81/81  11/11/11  79/79/79
f 21/21/21  15/15/15  12/12/12
f 76/76/76  13/13/13  16/16/16
f 79/79/79  14/14/14  77/77/77
f 19/19/19  17/17/17  15/15/15
f 104/104/104  16/16/16  18/18/18
f 21/21/21  19/19/19  15/15/15
f 104/104/104  76/76/76  16/16/16
f 102/102/102  18/18/18  20/20/20
f 104/104/104  18/18/18  102/102/102
f 100/100/100  20/20/20  22/22/22
f 102/102/102  20/20/20  100/100/100
f 100/100/100  22/22/22  98/98/98
f 32/32/32  26/26/26  23/23/23
f 60/60/60  24/24/24  27/27/27
f 34/34/34  32/32/32  23/23/23
f 43/43/43  34/34/34  23/23/23
f 63/63/63  44/44/44  25/25/25
f 63/63/63  25/25/25  61/61/61
f 30/30/30  28/28/28  26/26/26
f 112/112/112  27/27/27  29/29/29
f 32/32/32  30/30/30  26/26/26
f 112/112/112  60/60/60  27/27/27
f 110/110/110  29/29/29  31/31/31
f 112/112/112  29/29/29  110/110/110
f 108/108/108  31/31/31  33/33/33
f 110/110/110  31/31/31  108/108/108
f 106/106/106  33/33/33  35/35/35
f 108/108/108  33/33/33  106/106/106
f 43/43/43  37/37/37  34/34/34
f 73/73/73  36/36/36  38/38/38
f 106/106/106  35/35/35  72/72/72
f 41/41/41  39/39/39  37/37/37
f 69/69/69  38/38/38  40/40/40
f 43/43/43  41/41/41  37/37/37
f 73/73/73  38/38/38  69/69/69
f 67/67/67  40/40/40  42/42/42
f 69/69/69  40/40/40  67/67/67
f 65/65/65  42/42/42  44/44/44
f 67/67/67  42/42/42  65/65/65
f 65/65/65  44/44/44  63/63/63
f 84/84/84  48/48/48  45/45/45
f 144/144/144  47/47/47  49/49/49
f 95/95/95  84/84/84  45/45/45
f 146/146/146  96/96/96  46/46/46
f 146/146/146  46/46/46  143/143/143
f 58/58/58  51/51/51  48/48/48
f 141/141/141  50/50/50  52/52/52
f 62/62/62  58/58/58  48/48/48
f 84/84/84  62/62/62  48/48/48
f 144/144/144  49/49/49  140/140/140
f 58/58/58  53/53/53  51/51/51
f 138/138/138  52/52/52  54/54/54
f 141/141/141  52/52/52  138/138/138
f 58/58/58  55/55/55  53/53/53
f 138/138/138  54/54/54  57/57/57
f 111/111/111  56/56/56  59/59/59
f 113/113/113  56/56/56  111/111/111
f 136/136/136  57/57/57  114/114/114
f 138/138/138  57/57/57  136/136/136
f 82/82/82  64/64/64  62/62/62
f 84/84/84  82/82/82  62/62/62
f 80/80/80  66/66/66  64/64/64
f 82/82/82  80/80/80  64/64/64
f 78/78/78  68/68/68  66/66/66
f 80/80/80  78/78/78  66/66/66
f 74/74/74  70/70/70  68/68/68
f 78/78/78  74/74/74  68/68/68
f 103/103/103  71/71/71  75/75/75
f 105/105/105  71/71/71  103/103/103
f 90/90/90  86/86/86  84/84/84
f 93/93/93  90/90/90  84/84/84
f 95/95/95  93/93/93  84/84/84
f 125/125/125  87/87/87  91/91/91
f 120/120/120  97/97/97  87/87/87
f 123/123/123  120/120/120  87/87/87
f 125/125/125  123/123/123  87/87/87
f 148/148/148  92/92/92  94/94/94
f 150/150/150  126/126/126  92/92/92
f 150/150/150  92/92/92  148/148/148
f 146/146/146  94/94/94  96/96/96
f 148/148/148  94/94/94  146/146/146
f 109/109/109  99/99/99  97/97/97
f 111/111/111  109/109/109  97/97/97
f 120/120/120  111/111/111  97/97/97
f 107/107/107  101/101/101  99/99/99
f 109/109/109  107/107/107  99/99/99
f 105/105/105  103/103/103  101/101/101
f 107/107/107  105/105/105  101/101/101
f 115/115/115  113/113/113  111/111/111
f 117/117/117  115/115/115  111/111/111
f 120/120/120  117/117/117  111/111/111
f 134/134/134  114/114/114  116/116/116
f 136/136/136  114/114/114  134/134/134
f 134/134/134  116/116/116  118/118/118
f 132/132/132  119/119/119  122/122/122
f 134/134/134  118/118/118  131/131/131
f 128/128/128  121/121/121  124/124/124
f 132/132/132  122/122/122  129/129/129
f 150/150/150  124/124/124  126/126/126
f 150/150/150  128/128/128  124/124/124
f 139/139/139  130/130/130  127/127/127
f 142/142/142  139/139/139  127/127/127
f 149/149/149  142/142/142  127/127/127
f 137/137/137  133/133/133  130/130/130
f 139/139/139  137/137/137  130/130/130
f 137/137/137  135/135/135  133/133/133
f 149/149/149  145/145/145  142/142/142
f 149/149/149  147/147/147  145/145/145
