mtllib 6.mtl

v  -14.053243 -1.796210 24.500000
v  -14.053243 -1.796210 24.500000
v  -14.053243 -1.796210 24.500000
v  -12.193456 7.213850 24.500000
v  -12.193456 7.213850 24.500000
v  -12.193456 7.213850 24.500000
v  -12.251093 7.514487 24.500000
v  -12.251093 7.514487 24.500000
v  -12.504337 7.686452 24.500000
v  -12.504337 7.686452 24.500000
v  -12.504337 7.686452 24.500000
v  -19.555689 9.141938 24.500000
v  -19.555689 9.141938 24.500000
v  -19.555689 9.141938 24.500000
v  -19.856326 9.084301 24.500000
v  -19.856326 9.084301 24.500000
v  -20.028291 8.831056 24.500000
v  -20.028291 8.831056 24.500000
v  -20.028291 8.831056 24.500000
v  -21.888078 -0.179004 24.500000
v  -21.888078 -0.179004 24.500000
v  -21.888078 -0.179004 24.500000
v  -21.830441 -0.479641 24.500000
v  -21.830441 -0.479641 24.500000
v  -21.577197 -0.651606 24.500000
v  -21.577197 -0.651606 24.500000
v  -21.577197 -0.651606 24.500000
v  -14.525845 -2.107092 24.500000
v  -14.525845 -2.107092 24.500000
v  -14.525845 -2.107092 24.500000
v  -14.225208 -2.049454 24.500000
v  -14.225208 -2.049454 24.500000
v  -14.525845 -2.107092 69.500000
v  -14.525845 -2.107092 69.500000
v  -14.525845 -2.107092 69.500000
v  -21.577197 -0.651606 69.500000
v  -21.577197 -0.651606 69.500000
v  -21.577197 -0.651606 69.500000
v  -21.830441 -0.479641 69.500000
v  -21.830441 -0.479641 69.500000
v  -21.888078 -0.179004 69.500000
v  -21.888078 -0.179004 69.500000
v  -21.888078 -0.179004 69.500000
v  -20.028291 8.831056 69.500000
v  -20.028291 8.831056 69.500000
v  -20.028291 8.831056 69.500000
v  -19.856326 9.084301 69.500000
v  -19.856326 9.084301 69.500000
v  -19.555689 9.141938 69.500000
v  -19.555689 9.141938 69.500000
v  -19.555689 9.141938 69.500000
v  -12.504337 7.686452 69.500000
v  -12.504337 7.686452 69.500000
v  -12.504337 7.686452 69.500000
v  -12.251093 7.514487 69.500000
v  -12.251093 7.514487 69.500000
v  -12.193456 7.213850 69.500000
v  -12.193456 7.213850 69.500000
v  -12.193456 7.213850 69.500000
v  -14.053243 -1.796210 69.500000
v  -14.053243 -1.796210 69.500000
v  -14.053243 -1.796210 69.500000
v  -14.225208 -2.049454 69.500000
v  -14.225208 -2.049454 69.500000

vt  0.020299 0.204881 0.000000
vt  0.020299 0.204881 0.000000
vt  0.020299 0.204881 0.000000
vt  0.979701 0.204881 0.000000
vt  0.979701 0.204881 0.000000
vt  0.979701 0.204881 0.000000
vt  0.976977 0.198648 0.000000
vt  0.976977 0.198648 0.000000
vt  0.976812 0.189413 0.000000
vt  0.976812 0.189413 0.000000
vt  0.976812 0.189413 0.000000
vt  0.996244 0.006892 0.000000
vt  0.996244 0.006892 0.000000
vt  0.996244 0.006892 0.000000
vt  0.997647 0.001207 0.000000
vt  0.997647 0.001207 0.000000
vt  1.000000 0.000000 0.000000
vt  1.000000 0.000000 0.000000
vt  1.000000 0.000000 0.000000
vt  0.000000 0.000000 0.000000
vt  0.000000 0.000000 0.000000
vt  0.000000 0.000000 0.000000
vt  0.002353 0.001207 0.000000
vt  0.002353 0.001207 0.000000
vt  0.003756 0.006892 0.000000
vt  0.003756 0.006892 0.000000
vt  0.003756 0.006892 0.000000
vt  0.023188 0.189413 0.000000
vt  0.023188 0.189413 0.000000
vt  0.023188 0.189413 0.000000
vt  0.023023 0.198648 0.000000
vt  0.023023 0.198648 0.000000
vt  0.023188 0.521034 0.000000
vt  0.023188 0.521034 0.000000
vt  0.023188 0.521034 0.000000
vt  0.003756 0.428011 0.000000
vt  0.003756 0.428011 0.000000
vt  0.003756 0.428011 0.000000
vt  0.002353 0.424751 0.000000
vt  0.002353 0.424751 0.000000
vt  0.000000 0.424056 0.000000
vt  0.000000 0.424056 0.000000
vt  0.000000 0.424056 0.000000
vt  1.000000 0.424056 0.000000
vt  1.000000 0.424056 0.000000
vt  1.000000 0.424056 0.000000
vt  0.997647 0.424751 0.000000
vt  0.997647 0.424751 0.000000
vt  0.996244 0.428011 0.000000
vt  0.996244 0.428011 0.000000
vt  0.996244 0.428011 0.000000
vt  0.976812 0.521034 0.000000
vt  0.976812 0.521034 0.000000
vt  0.976812 0.521034 0.000000
vt  0.976977 0.525250 0.000000
vt  0.976977 0.525250 0.000000
vt  0.979701 0.528074 0.000000
vt  0.979701 0.528074 0.000000
vt  0.979701 0.528074 0.000000
vt  0.020299 0.528074 0.000000
vt  0.020299 0.528074 0.000000
vt  0.020299 0.528074 0.000000
vt  0.023023 0.525250 0.000000
vt  0.023023 0.525250 0.000000

vn  0.000000 0.000000 -1.000000
vn  0.979354 -0.202151 0.000000
vn  0.979354 -0.202151 0.000000
vn  0.000000 0.000000 -1.000000
vn  0.979354 -0.202151 0.000000
vn  0.979354 -0.202151 0.000000
vn  0.000000 0.000000 -1.000000
vn  0.835450 0.549566 0.000000
vn  0.000000 0.000000 -1.000000
vn  0.202151 0.979354 0.000000
vn  0.202151 0.979354 0.000000
vn  0.000000 0.000000 -1.000000
vn  0.202151 0.979354 0.000000
vn  0.202151 0.979354 0.000000
vn  0.000000 0.000000 -1.000000
vn  -0.549566 0.835450 0.000000
vn  0.000000 0.000000 -1.000000
vn  -0.979354 0.202151 0.000000
vn  -0.979354 0.202151 0.000000
vn  0.000000 0.000000 -1.000000
vn  -0.979354 0.202151 0.000000
vn  -0.979354 0.202151 0.000000
vn  0.000000 0.000000 -1.000000
vn  -0.835450 -0.549566 -0.000000
vn  0.000000 0.000000 -1.000000
vn  -0.202151 -0.979354 -0.000000
vn  -0.202151 -0.979354 -0.000000
vn  0.000000 0.000000 -1.000000
vn  -0.202151 -0.979354 -0.000000
vn  -0.202151 -0.979354 -0.000000
vn  0.000000 0.000000 -1.000000
vn  0.549566 -0.835450 -0.000000
vn  -0.000000 -0.000000 1.000000
vn  -0.202151 -0.979354 -0.000000
vn  -0.202151 -0.979354 -0.000000
vn  -0.000000 -0.000000 1.000000
vn  -0.202151 -0.979354 -0.000000
vn  -0.202151 -0.979354 -0.000000
vn  -0.000000 -0.000000 1.000000
vn  -0.835450 -0.549566 -0.000000
vn  -0.000000 -0.000000 1.000000
vn  -0.979354 0.202151 0.000000
vn  -0.979354 0.202151 0.000000
vn  -0.000000 -0.000000 1.000000
vn  -0.979354 0.202151 0.000000
vn  -0.979354 0.202151 0.000000
vn  -0.000000 -0.000000 1.000000
vn  -0.549566 0.835450 0.000000
vn  -0.000000 -0.000000 1.000000
vn  0.202151 0.979354 0.000000
vn  0.202151 0.979354 0.000000
vn  -0.000000 -0.000000 1.000000
vn  0.202151 0.979354 0.000000
vn  0.202151 0.979354 0.000000
vn  -0.000000 -0.000000 1.000000
vn  0.835450 0.549566 0.000000
vn  -0.000000 -0.000000 1.000000
vn  0.979354 -0.202151 0.000000
vn  0.979354 -0.202151 0.000000
vn  -0.000000 -0.000000 1.000000
vn  0.979354 -0.202151 0.000000
vn  0.979354 -0.202151 0.000000
vn  -0.000000 -0.000000 1.000000
vn  0.549566 -0.835450 -0.000000


g 0
g 1
usemtl MTL0
f 17/17/17  4/4/4  1/1/1
f 58/58/58  2/2/2  5/5/5
f 20/20/20  17/17/17  1/1/1
f 31/31/31  20/20/20  1/1/1
f 64/64/64  32/32/32  3/3/3
f 61/61/61  2/2/2  58/58/58
f 64/64/64  3/3/3  62/62/62
f 15/15/15  7/7/7  4/4/4
f 59/59/59  6/6/6  8/8/8
f 17/17/17  15/15/15  4/4/4
f 12/12/12  9/9/9  7/7/7
f 56/56/56  8/8/8  11/11/11
f 15/15/15  12/12/12  7/7/7
f 59/59/59  8/8/8  56/56/56
f 50/50/50  10/10/10  13/13/13
f 53/53/53  10/10/10  50/50/50
f 56/56/56  11/11/11  54/54/54
f 51/51/51  14/14/14  16/16/16
f 48/48/48  16/16/16  19/19/19
f 51/51/51  16/16/16  48/48/48
f 42/42/42  18/18/18  21/21/21
f 45/45/45  18/18/18  42/42/42
f 48/48/48  19/19/19  46/46/46
f 31/31/31  23/23/23  20/20/20
f 43/43/43  22/22/22  24/24/24
f 28/28/28  25/25/25  23/23/23
f 40/40/40  24/24/24  27/27/27
f 31/31/31  28/28/28  23/23/23
f 43/43/43  24/24/24  40/40/40
f 34/34/34  26/26/26  29/29/29
f 37/37/37  26/26/26  34/34/34
f 40/40/40  27/27/27  38/38/38
f 35/35/35  30/30/30  32/32/32
f 64/64/64  35/35/35  32/32/32
f 63/63/63  36/36/36  33/33/33
f 63/63/63  39/39/39  36/36/36
f 60/60/60  41/41/41  39/39/39
f 63/63/63  60/60/60  39/39/39
f 57/57/57  44/44/44  41/41/41
f 60/60/60  57/57/57  41/41/41
f 55/55/55  47/47/47  44/44/44
f 57/57/57  55/55/55  44/44/44
f 52/52/52  49/49/49  47/47/47
f 55/55/55  52/52/52  47/47/47
